<svg xmlns="http://www.w3.org/2000/svg" viewBox="-12 -10 264 336" width="264" height="336" preserveAspectRatio="xMidYMax meet" style="display:block;overflow:visible" xmlns:c2pa="http://c2pa.org/manifest"><metadata><c2pa:manifest>AAAWgmp1bWIAAAAeanVtZGMycGEAEQAQgAAAqgA4m3EDYzJwYQAAABZcanVtYgAAAEdqdW1kYzJtYQARABCAAACqADibcQN1cm46YzJwYTo0OGFkODM3NC1kZjdjLTQ4YjMtOTlmOS03MGYzY2M1NjZlYTEAAAADl2p1bWIAAAApanVtZGMyYXMAEQAQgAAAqgA4m3EDYzJwYS5hc3NlcnRpb25zAAAAALxqdW1iAAAARGp1bWRjYm9yABEAEIAAAKoAOJtxE2MycGEuaW5ncmVkaWVudC52MwAAAAAYYzJzaAuK3Yy/HAnHBVu+1eSZ4cQAAABwY2JvcqNpZGM6Zm9ybWF0bWltYWdlL3N2Zyt4bWxqaW5zdGFuY2VJRHgseG1wOmlpZDphNjExZDk2NS0xZjVjLTQzYzMtYTkwMi0xZmRjNTIxODM4MTJscmVsYXRpb25zaGlwaHBhcmVudE9mAAAB4mp1bWIAAABBanVtZGNib3IAEQAQgAAAqgA4m3ETYzJwYS5hY3Rpb25zLnYyAAAAABhjMnNofASTKFcZ7KcwUiMYUj2drwAAAZljYm9yomdhY3Rpb25zgqJmYWN0aW9ua2MycGEub3BlbmVkanBhcmFtZXRlcnOha2luZ3JlZGllbnRzgaJjdXJseC1zZWxmI2p1bWJmPWMycGEuYXNzZXJ0aW9ucy9jMnBhLmluZ3JlZGllbnQudjNkaGFzaFggkxMQmJ3L88fb4TYEi5fQP67XjAvR3hWulOqG9wZKpWakZmFjdGlvbngdY29tLmFudGhyb3BpYy5jbGF1ZGUucHJvdmlkZWRqcGFyYW1ldGVyc6F4H2NvbS5hbnRocm9waWMub3JpZ2luLWNvbmZpZGVuY2VndW5rbm93bmtkZXNjcmlwdGlvbnhmQ2xhdWRlIHByb3ZpZGVkIHRoaXMgZmlsZSBhdCB0aGUgcmVxdWVzdCBvZiBhIHVzZXIgYW5kIG1heSBoYXZlIGNyZWF0ZWQgb3IgbW9kaWZpZWQgdGhlIGZpbGUgY29udGVudHMubXNvZnR3YXJlQWdlbnShZG5hbWVmQ2xhdWRlcmFsbEFjdGlvbnNJbmNsdWRlZPUAAADIanVtYgAAAEBqdW1kY2JvcgARABCAAACqADibcRNjMnBhLmhhc2guZGF0YQAAAAAYYzJzaGwdLtm84XCZzQfv9emBRwcAAACAY2JvcqVjYWxnZnNoYTI1NmNwYWRNAAAAAAAAAAAAAAAAAGRoYXNoWCBAsijoINocIIsmk+FfDtcuYwXvhNoY9Z+D2JOA/DFUzmRuYW1lbmp1bWJmIG1hbmlmZXN0amV4Y2x1c2lvbnOBomVzdGFydBjlZmxlbmd0aBkeBAAAAj5qdW1iAAAAJ2p1bWRjMmNsABEAEIAAAKoAOJtxA2MycGEuY2xhaW0udjIAAAACD2Nib3KlY2FsZ2ZzaGEyNTZpc2lnbmF0dXJleE1zZWxmI2p1bWJmPS9jMnBhL3VybjpjMnBhOjQ4YWQ4Mzc0LWRmN2MtNDhiMy05OWY5LTcwZjNjYzU2NmVhMS9jMnBhLnNpZ25hdHVyZWppbnN0YW5jZUlEeCx4bXA6aWlkOjI4NDM2ZTIxLTIzOGYtNDhkMC05NTkzLTdhYmNmYzFjOTIxNXJjcmVhdGVkX2Fzc2VydGlvbnODomN1cmx4LXNlbGYjanVtYmY9YzJwYS5hc3NlcnRpb25zL2MycGEuaW5ncmVkaWVudC52M2RoYXNoWCCTExCYncvzx9vhNgSLl9A/rteMC9HeFa6U6ob3BkqlZqJjdXJseCpzZWxmI2p1bWJmPWMycGEuYXNzZXJ0aW9ucy9jMnBhLmFjdGlvbnMudjJkaGFzaFgges7NksJWPFhnjqgDpp2gW4bOGzmCV02FOVLF9+OnSGeiY3VybHgpc2VsZiNqdW1iZj1jMnBhLmFzc2VydGlvbnMvYzJwYS5oYXNoLmRhdGFkaGFzaFgg5DnuBCWrZAhjyDMkdun8MkjE1PXhyRD5pPDQEd/HN4h0Y2xhaW1fZ2VuZXJhdG9yX2luZm+jZG5hbWVvQW50aHJvcGljIEZpbGVzZ3ZlcnNpb25lMS4wLjBrc3BlY1ZlcnNpb25lMi40LjAAABA4anVtYgAAAChqdW1kYzJjcwARABCAAACqADibcQNjMnBhLnNpZ25hdHVyZQAAABAIY2JvctKEWQISogEmGCFZAgowggIGMIIBjaADAgECAhRA5aAK7sI50L64g/oGQgU9Z1UTADAKBggqhkjOPQQDAzBJMRcwFQYDVQQKEw5BbnRocm9waWMsIFBCQzEuMCwGA1UEAxMlQW50aHJvcGljIENvbnRlbnQgQ3JlZGVudGlhbHMgUm9vdCBDQTAeFw0yNjA4MDcxODQzNTZaFw0yODA4MDYxOTQzNTZaMEQxFzAVBgNVBAoTDkFudGhyb3BpYywgUEJDMSkwJwYDVQQDEyBBbnRocm9waWMgQ2xhdWRlIENvbnRlbnQgU2lnbmluZzBZMBMGByqGSM49AgEGCCqGSM49AwEHA0IABJh6CmvLUBgFFNU0vUKlOVtE6djd17L5SuwX0LemFisBM3dkd/3cyjxFA3Qo5S46fX0/ihY0VZ7mfb9KF703t5OjWDBWMA4GA1UdDwEB/wQEAwIHgDAVBgNVHSUEDjAMBgorBgEEAYPoXgIBMAwGA1UdEwEB/wQCMAAwHwYDVR0jBBgwFoAUzlHiBIFOZFsj+OPEz5o+nMHXXMIwCgYIKoZIzj0EAwMDZwAwZAIwMXMdFJ4BetLLVY7ORuE9noqbbAZOZn/aArXyTwFAZfKrPzxF2vPoJNf1+UCdg1XGAjBwX1zd9WGqYkqmL5SFqw1QySjr1zJfpJM9+1rdDwSPLMOPOjKuiXjoU/pUUeG9RwmhY3BhZFkNngAAAAAAAAAAAAAAAAAAAAAAAAAAAAAAAAAAAAAAAAAAAAAAAAAAAAAAAAAAAAAAAAAAAAAAAAAAAAAAAAAAAAAAAAAAAAAAAAAAAAAAAAAAAAAAAAAAAAAAAAAAAAAAAAAAAAAAAAAAAAAAAAAAAAAAAAAAAAAAAAAAAAAAAAAAAAAAAAAAAAAAAAAAAAAAAAAAAAAAAAAAAAAAAAAAAAAAAAAAAAAAAAAAAAAAAAAAAAAAAAAAAAAAAAAAAAAAAAAAAAAAAAAAAAAAAAAAAAAAAAAAAAAAAAAAAAAAAAAAAAAAAAAAAAAAAAAAAAAAAAAAAAAAAAAAAAAAAAAAAAAAAAAAAAAAAAAAAAAAAAAAAAAAAAAAAAAAAAAAAAAAAAAAAAAAAAAAAAAAAAAAAAAAAAAAAAAAAAAAAAAAAAAAAAAAAAAAAAAAAAAAAAAAAAAAAAAAAAAAAAAAAAAAAAAAAAAAAAAAAAAAAAAAAAAAAAAAAAAAAAAAAAAAAAAAAAAAAAAAAAAAAAAAAAAAAAAAAAAAAAAAAAAAAAAAAAAAAAAAAAAAAAAAAAAAAAAAAAAAAAAAAAAAAAAAAAAAAAAAAAAAAAAAAAAAAAAAAAAAAAAAAAAAAAAAAAAAAAAAAAAAAAAAAAAAAAAAAAAAAAAAAAAAAAAAAAAAAAAAAAAAAAAAAAAAAAAAAAAAAAAAAAAAAAAAAAAAAAAAAAAAAAAAAAAAAAAAAAAAAAAAAAAAAAAAAAAAAAAAAAAAAAAAAAAAAAAAAAAAAAAAAAAAAAAAAAAAAAAAAAAAAAAAAAAAAAAAAAAAAAAAAAAAAAAAAAAAAAAAAAAAAAAAAAAAAAAAAAAAAAAAAAAAAAAAAAAAAAAAAAAAAAAAAAAAAAAAAAAAAAAAAAAAAAAAAAAAAAAAAAAAAAAAAAAAAAAAAAAAAAAAAAAAAAAAAAAAAAAAAAAAAAAAAAAAAAAAAAAAAAAAAAAAAAAAAAAAAAAAAAAAAAAAAAAAAAAAAAAAAAAAAAAAAAAAAAAAAAAAAAAAAAAAAAAAAAAAAAAAAAAAAAAAAAAAAAAAAAAAAAAAAAAAAAAAAAAAAAAAAAAAAAAAAAAAAAAAAAAAAAAAAAAAAAAAAAAAAAAAAAAAAAAAAAAAAAAAAAAAAAAAAAAAAAAAAAAAAAAAAAAAAAAAAAAAAAAAAAAAAAAAAAAAAAAAAAAAAAAAAAAAAAAAAAAAAAAAAAAAAAAAAAAAAAAAAAAAAAAAAAAAAAAAAAAAAAAAAAAAAAAAAAAAAAAAAAAAAAAAAAAAAAAAAAAAAAAAAAAAAAAAAAAAAAAAAAAAAAAAAAAAAAAAAAAAAAAAAAAAAAAAAAAAAAAAAAAAAAAAAAAAAAAAAAAAAAAAAAAAAAAAAAAAAAAAAAAAAAAAAAAAAAAAAAAAAAAAAAAAAAAAAAAAAAAAAAAAAAAAAAAAAAAAAAAAAAAAAAAAAAAAAAAAAAAAAAAAAAAAAAAAAAAAAAAAAAAAAAAAAAAAAAAAAAAAAAAAAAAAAAAAAAAAAAAAAAAAAAAAAAAAAAAAAAAAAAAAAAAAAAAAAAAAAAAAAAAAAAAAAAAAAAAAAAAAAAAAAAAAAAAAAAAAAAAAAAAAAAAAAAAAAAAAAAAAAAAAAAAAAAAAAAAAAAAAAAAAAAAAAAAAAAAAAAAAAAAAAAAAAAAAAAAAAAAAAAAAAAAAAAAAAAAAAAAAAAAAAAAAAAAAAAAAAAAAAAAAAAAAAAAAAAAAAAAAAAAAAAAAAAAAAAAAAAAAAAAAAAAAAAAAAAAAAAAAAAAAAAAAAAAAAAAAAAAAAAAAAAAAAAAAAAAAAAAAAAAAAAAAAAAAAAAAAAAAAAAAAAAAAAAAAAAAAAAAAAAAAAAAAAAAAAAAAAAAAAAAAAAAAAAAAAAAAAAAAAAAAAAAAAAAAAAAAAAAAAAAAAAAAAAAAAAAAAAAAAAAAAAAAAAAAAAAAAAAAAAAAAAAAAAAAAAAAAAAAAAAAAAAAAAAAAAAAAAAAAAAAAAAAAAAAAAAAAAAAAAAAAAAAAAAAAAAAAAAAAAAAAAAAAAAAAAAAAAAAAAAAAAAAAAAAAAAAAAAAAAAAAAAAAAAAAAAAAAAAAAAAAAAAAAAAAAAAAAAAAAAAAAAAAAAAAAAAAAAAAAAAAAAAAAAAAAAAAAAAAAAAAAAAAAAAAAAAAAAAAAAAAAAAAAAAAAAAAAAAAAAAAAAAAAAAAAAAAAAAAAAAAAAAAAAAAAAAAAAAAAAAAAAAAAAAAAAAAAAAAAAAAAAAAAAAAAAAAAAAAAAAAAAAAAAAAAAAAAAAAAAAAAAAAAAAAAAAAAAAAAAAAAAAAAAAAAAAAAAAAAAAAAAAAAAAAAAAAAAAAAAAAAAAAAAAAAAAAAAAAAAAAAAAAAAAAAAAAAAAAAAAAAAAAAAAAAAAAAAAAAAAAAAAAAAAAAAAAAAAAAAAAAAAAAAAAAAAAAAAAAAAAAAAAAAAAAAAAAAAAAAAAAAAAAAAAAAAAAAAAAAAAAAAAAAAAAAAAAAAAAAAAAAAAAAAAAAAAAAAAAAAAAAAAAAAAAAAAAAAAAAAAAAAAAAAAAAAAAAAAAAAAAAAAAAAAAAAAAAAAAAAAAAAAAAAAAAAAAAAAAAAAAAAAAAAAAAAAAAAAAAAAAAAAAAAAAAAAAAAAAAAAAAAAAAAAAAAAAAAAAAAAAAAAAAAAAAAAAAAAAAAAAAAAAAAAAAAAAAAAAAAAAAAAAAAAAAAAAAAAAAAAAAAAAAAAAAAAAAAAAAAAAAAAAAAAAAAAAAAAAAAAAAAAAAAAAAAAAAAAAAAAAAAAAAAAAAAAAAAAAAAAAAAAAAAAAAAAAAAAAAAAAAAAAAAAAAAAAAAAAAAAAAAAAAAAAAAAAAAAAAAAAAAAAAAAAAAAAAAAAAAAAAAAAAAAAAAAAAAAAAAAAAAAAAAAAAAAAAAAAAAAAAAAAAAAAAAAAAAAAAAAAAAAAAAAAAAAAAAAAAAAAAAAAAAAAAAAAAAAAAAAAAAAAAAAAAAAAAAAAAAAAAAAAAAAAAAAAAAAAAAAAAAAAAAAAAAAAAAAAAAAAAAAAAAAAAAAAAAAAAAAAAAAAAAAAAAAAAAAAAAAAAAAAAAAAAAAAAAAAAAAAAAAAAAAAAAAAAAAAAAAAAAAAAAAAAAAAAAAAAAAAAAAAAAAAAAAAAAAAAAAAAAAAAAAAAAAAAAAAAAAAAAAAAAAAAAAAAAAAAAAAAAAAAAAAAAAAAAAAAAAAAAAAAAAAAAAAAAAAAAAAAAAAAAAAAAAAAAAAAAAAAAAAAAAAAAAAAAAAAAAAAAAAAAAAAAAAAAAAAAAAAAAAAAAAAAAAAAAAAAAAAAAAAAAAAAAAAAAAAAAAAAAAAAAAAAAAAAAAAAAAAAAAAAAAAAAAAAAAAAAAAAAAAAAAAAAAAAAAAAAAAAAAAAAAAAAAAAAAAAAAAAAAAAAAAAAAAAAAAAAAAAAAAAAAAAAAAAAAAAAAAAAAAAAAAAAAAAAAAAAAAAAAAAAAAAAAAAAAAAAAAAAAAAAAAAAAAAAAAAAAAAAAAAAAAAAAAAAAAAAAAAAAAAAAAAAAAAAAAAAAAAAAAAAAAAAAAAAAAAAAAAAAAAAAAAAAAAAAAAAAAAAAAAAAAAAAAAAAAAAAAAAAAAAAAAAAAAAAAAAAAAAAAAAAAAAAAAAAAAAAAAAAAAAAAAAAAAAAAAAAAAAAAAAAAAAAAAAAAAAAAAAAAAAAAAAAAAAAAAAAAAAAAAAAAAAAAAAAAAAAAAAAAAAAAAAAAAAAAAAAAAAAAAAAAAAAAAAAAAAAAAAAAAAAAAAAAAAAAAAAAAAAAAAAAAAAAAAAAAAAAAAAAAAAAAAAAAAAAAAAAAAAAAAAAAAAAAAAAAAAAAAAAAAAAAAAAAAAAAAAAAAAAAAAAAAAAAAAAAAAAAAAAAAAAAAAAAAAAAAAAAAAAAAAAAAAAAAAAAAAAAAAAAAAAAAAAAAAAAAAAAAAAAAAAAAAAAAAAAAAAAAAAAAAAAAAAAAAAAAAAAAAAAAAAAAAAAAAAAAAAAAAAAAAAAAAAAAAAAAAAAAAAAAAAAAAAAAAAAAAAAAAAAAAAAAAAAAAAAAAAAAAAAAAAAAAAAAAAAAAAAAAAAAAAAAAAAAAAAAAAAAAAAAAAAAAAAAAAAAAAAAAAAAAAAAAAAAAAAAAAAAAAAAAAAAAAAAAAAAAAAAAAAAAAAAAAAAAAAAAAAAAAAAAAAAAAAAAAAAAAAAAAAAAAAAAAAAAAAAAAAAAAAAAAAAAAAAAAAAAAAAAAAAAAAAAAAAAAAAAAAAAAAAAAAAAAAAAAAAAAAAAAAAAAAAAAAAAAAAAAAAAAAAAAAAAAAAAAAAAAAAAAAAAAAAAAAAAAAAAAAAAAAAAAAAAAAAAAAAAAAAAAAAAAAAAAAAAAAAAAAAAAAAAAAAAAAAAAAAAAAAAAAAAAAAAAAAAAAAAAAAAAAAAAAAAAAAAAAAAAAAAAAAAAAAAAAAAAAAAAAAAAAAAAAAAAAAAAAAAAAAAAAAAAAAAAAAAAAAAAAAAAAAAAAAAAAAAAAAAAAAAAAAAAAAAAAAAAAAAAAAAAAAAAAAAAAAAAAAAAAAAAAAAAAPZYQFyjpkevKKzOFC7YQv6NlzTVP5oBpG1qHOIAljW3gs8dgldeRFJ23QyJkWbB2EaOpf+BfRzRtdIq3p/P7FHEwTY=</c2pa:manifest></metadata><defs><clipPath id="coachb"><path d="M95.6,161.8 C75.6,164.8 22,169.8 10,187.8 C6,211.8 2,236 2,262 C2,284 8,294 8,306 L30.4,306 L52.8,308.6 L75.2,304.7 L97.6,307.3 L120,303.4 L142.4,306 L164.8,308.6 L187.2,304.7 L209.6,307.3 L232,303.4 C232,294 238,284 238,262 C238,236 234,211.8 230,187.8 C218,169.8 164.4,164.8 144.4,161.8Z"></path></clipPath><clipPath id="coachh"><path d="M120,38 C155.96,38 178,66.27200000000002 178,112.4 C178,143.15200000000002 155.96,162 120,162 C84.03999999999999,162 62,143.15200000000002 62,112.4 C62,66.27200000000002 84.03999999999999,38 120,38Z"></path></clipPath><filter id="coachc" x="-12%" y="-10%" width="124%" height="120%" color-interpolation-filters="sRGB"><feMorphology in="SourceAlpha" operator="dilate" radius="5" result="d"></feMorphology><feTurbulence type="fractalNoise" baseFrequency="0.045" numOctaves="2" seed="17" result="n"></feTurbulence><feDisplacementMap in="d" in2="n" scale="9" xChannelSelector="R" yChannelSelector="G" result="dd"></feDisplacementMap><feFlood flood-color="#FFFFFF" result="w"></feFlood><feComposite in="w" in2="dd" operator="in" result="wb"></feComposite><feOffset in="dd" dx="4" dy="5" result="so"></feOffset><feFlood flood-color="#151515" flood-opacity=".3"></feFlood><feComposite in2="so" operator="in" result="shd"></feComposite><feTurbulence type="fractalNoise" baseFrequency=".85" numOctaves="2" seed="24" result="g"></feTurbulence><feColorMatrix in="g" type="matrix" values="0 0 0 0 0.08  0 0 0 0 0.08  0 0 0 0 0.08  0.55 0 0 0 -0.24" result="ga"></feColorMatrix><feComposite in="ga" in2="SourceAlpha" operator="in" result="gr"></feComposite><feMerge><feMergeNode in="shd"></feMergeNode><feMergeNode in="wb"></feMergeNode><feMergeNode in="SourceGraphic"></feMergeNode><feMergeNode in="gr"></feMergeNode></feMerge></filter></defs><g filter="url(#coachc)"><g id="cheveux_arriere" data-calque="cheveux_arriere"></g><g id="corps" data-calque="corps"><rect x="95.64" y="124.8" width="48.72" height="53.000000000000014" fill="#E9B794"></rect><path d="M95.6,161.8 C75.6,164.8 22,169.8 10,187.8 C6,211.8 2,236 2,262 C2,284 8,294 8,306 L30.4,306 L52.8,308.6 L75.2,304.7 L97.6,307.3 L120,303.4 L142.4,306 L164.8,308.6 L187.2,304.7 L209.6,307.3 L232,303.4 C232,294 238,284 238,262 C238,236 234,211.8 230,187.8 C218,169.8 164.4,164.8 144.4,161.8Z" fill="#E9B794"></path></g><g id="maillot" data-calque="maillot"><g clip-path="url(#coachb)"><path d="M95.6,161.8 C75.6,164.8 22,169.8 10,187.8 C6,211.8 2,236 2,262 C2,284 8,294 8,306 L30.4,306 L52.8,308.6 L75.2,304.7 L97.6,307.3 L120,303.4 L142.4,306 L164.8,308.6 L187.2,304.7 L209.6,307.3 L232,303.4 C232,294 238,284 238,262 C238,236 234,211.8 230,187.8 C218,169.8 164.4,164.8 144.4,161.8Z" fill="#1D2747"></path><path d="M30,167.8 C14,181.8 4,221.8 6,262 M40,169.8 C24,183.8 14,223.8 16,266 M210,167.8 C226,181.8 236,221.8 234,262 M200,169.8 C216,183.8 226,223.8 224,266" fill="none" stroke="#FFFFFF" stroke-width="4"></path><path d="M120,169.8 V310" stroke="#61687e" stroke-width="2.5"></path><rect x="117" y="173.8" width="6" height="12" rx="2" fill="#C9C2B2"></rect><path d="M88,149.8 Q120,157.8 152,149.8 L150,165.8 Q120,173.8 90,165.8Z" fill="#1c2440"></path></g></g><g id="ombres" data-calque="ombres"><g transform="translate(1.5 1)"><g clip-path="url(#coachb)" fill="#151515" opacity=".2"><ellipse cx="120" cy="163.8" rx="35.96" ry="14"></ellipse><path d="M176,161.8 C232,171.8 248,250 232,316 L181.60000000000002,316 C202.6,250 187.2,191.8 176,161.8Z"></path><path d="M37.400000000000006,282 Q120,300 202.6,282 L202.6,292 Q120,312 37.400000000000006,292Z"></path></g></g></g><g id="tete" data-calque="tete"><ellipse cx="63.74" cy="103.72" rx="8.06" ry="10.540000000000001" fill="#E9B794"></ellipse><ellipse cx="176.26" cy="103.72" rx="8.06" ry="10.540000000000001" fill="#E9B794"></ellipse><ellipse cx="63.74" cy="103.72" rx="4.03" ry="5.58" fill="#c39a7d"></ellipse><ellipse cx="176.26" cy="103.72" rx="4.03" ry="5.58" fill="#c39a7d"></ellipse><path d="M120,38 C155.96,38 178,66.27200000000002 178,112.4 C178,143.15200000000002 155.96,162 120,162 C84.03999999999999,162 62,143.15200000000002 62,112.4 C62,66.27200000000002 84.03999999999999,38 120,38Z" fill="#E9B794"></path><g clip-path="url(#coachh)"><ellipse cx="180.9" cy="106.2" rx="26.1" ry="74.39999999999999" fill="#151515" opacity=".13"></ellipse></g></g><g id="cheveux" data-calque="cheveux"><path d="M62,93.8 C59.1,15.3 180.9,15.3 178,93.8 C171,69 149,61.6 120,61.6 C91,61.6 69,69 62,93.8Z" fill="#B9B2A4"></path><circle cx="88.1" cy="62.8" r="7.5" fill="#B9B2A4"></circle><circle cx="108.4" cy="62.8" r="7.5" fill="#B9B2A4"></circle><circle cx="128.7" cy="62.8" r="7.5" fill="#B9B2A4"></circle><circle cx="149" cy="62.8" r="7.5" fill="#B9B2A4"></circle></g><g id="yeux" data-calque="yeux"><ellipse cx="97.96000000000001" cy="109.68" rx="3.8" ry="4.4" fill="#151515"></ellipse><ellipse cx="142.04" cy="109.68" rx="3.8" ry="4.4" fill="#151515"></ellipse></g><g id="sourcils" data-calque="sourcils"><rect x="90.96000000000001" y="91.18" width="18" height="7" rx="3.5" fill="#8E877A" transform="rotate(24 99.96000000000001 94.68)"></rect><rect x="131.04" y="91.18" width="18" height="7" rx="3.5" fill="#8E877A" transform="rotate(-24 140.04 94.68)"></rect></g><g id="nez" data-calque="nez"><ellipse cx="123" cy="118.6" rx="12.76" ry="9.299999999999999" fill="#DE9272"></ellipse><ellipse cx="128.22" cy="120.6" rx="5.800000000000001" ry="5.58" fill="#151515" opacity=".1"></ellipse></g><g id="bouche" data-calque="bouche"><path d="M100.222,129.96 Q120,122.96000000000001 139.778,129.96 L133.398,159.96 Q120,167.96 106.602,159.96Z" fill="#151515"></path><path d="M103.412,128.96 Q120,123.46000000000001 136.588,128.96 L135.631,134.46 Q120,129.46 104.369,134.46Z" fill="#FFFFFF"></path><ellipse cx="120" cy="157.96" rx="8.932000000000002" ry="6" fill="#E1341E"></ellipse></g><g id="moustache" data-calque="moustache"><path fill="#A8A194" d="M120,117.96000000000001 C112,111.96000000000001 97.95071999999999,114.96000000000001 94.50551999999999,133.96 C102.774,128.96 111.387,130.96 120,125.96000000000001 C128.613,130.96 137.226,128.96 145.49448,133.96 C142.04928,114.96000000000001 128,111.96000000000001 120,117.96000000000001Z"></path></g><g id="accessoires" data-calque="accessoires"><path d="M64.32,78.3 C64.32,15.679999999999993 175.68,15.679999999999993 175.68,78.3 Q120,69 64.32,78.3Z" fill="#1D2747"></path><path d="M64.32,76.44 Q114.2,65.28 200.04,73.96000000000001 Q190.76,86.36 137.4,86.36 Q91,85.12 64.32,76.44Z" fill="#1a2136"></path><path d="M111,42.96 h18 v9 q0,7 -9,9 q-9,-2 -9,-9Z" fill="#FFFFFF"></path><circle cx="120" cy="31.799999999999997" r="3.5" fill="#1b2238"></circle><path d="M99.64,163.8 Q112,209.8 124,217.8 M140.36,163.8 Q132,201.8 124,217.8" fill="none" stroke="#E1341E" stroke-width="3"></path><g transform="translate(124,223.8) rotate(-20)"><rect x="-12" y="-6" width="24" height="12" rx="6" fill="#C9C2B2"></rect><rect x="6" y="-8" width="11" height="7" rx="2" fill="#C9C2B2"></rect><circle cx="-4" cy="0" r="2.5" fill="#151515"></circle></g><g transform="translate(60,262) rotate(-12)"><rect x="-15" y="-28" width="30" height="52" rx="5" fill="#151515"></rect><rect x="-12" y="-23" width="24" height="40" rx="2" fill="#7187cc"></rect></g><g transform="translate(62,284) rotate(-12)"><ellipse cx="0" cy="0" rx="16" ry="13" fill="#E9B794"></ellipse><ellipse cx="-13" cy="-7" rx="6" ry="8.5" fill="#E9B794"></ellipse><path d="M-4,-6 h14 M-2,1 h13" stroke="#c39a7d" stroke-width="2" stroke-linecap="round"></path></g></g></g></svg>