<svg xmlns="http://www.w3.org/2000/svg" viewBox="-12 -10 264 336" width="264" height="336" preserveAspectRatio="xMidYMax meet" style="display:block;overflow:visible" xmlns:c2pa="http://c2pa.org/manifest"><metadata><c2pa:manifest>AAAWgmp1bWIAAAAeanVtZGMycGEAEQAQgAAAqgA4m3EDYzJwYQAAABZcanVtYgAAAEdqdW1kYzJtYQARABCAAACqADibcQN1cm46YzJwYTo1OTU0NzA2MS0zYTgyLTRlYTAtODk3Ny02MTFhMjg5NzIyMWQAAAADl2p1bWIAAAApanVtZGMyYXMAEQAQgAAAqgA4m3EDYzJwYS5hc3NlcnRpb25zAAAAALxqdW1iAAAARGp1bWRjYm9yABEAEIAAAKoAOJtxE2MycGEuaW5ncmVkaWVudC52MwAAAAAYYzJzaMUB7Au/k7EA8Y3bL0SfqPgAAABwY2JvcqNpZGM6Zm9ybWF0bWltYWdlL3N2Zyt4bWxqaW5zdGFuY2VJRHgseG1wOmlpZDoyMTFhZDk0NS1kOGRmLTQwYjAtODhmOC0wY2FjNTU2YzFmYzVscmVsYXRpb25zaGlwaHBhcmVudE9mAAAB4mp1bWIAAABBanVtZGNib3IAEQAQgAAAqgA4m3ETYzJwYS5hY3Rpb25zLnYyAAAAABhjMnNo2Dcx4tSmYX7Jk0EWDVZ59gAAAZljYm9yomdhY3Rpb25zgqJmYWN0aW9ua2MycGEub3BlbmVkanBhcmFtZXRlcnOha2luZ3JlZGllbnRzgaJjdXJseC1zZWxmI2p1bWJmPWMycGEuYXNzZXJ0aW9ucy9jMnBhLmluZ3JlZGllbnQudjNkaGFzaFggOkMoGgTaKf+ASx2nxQ63I3nqU50DO9o0SsGiaLWh5uikZmFjdGlvbngdY29tLmFudGhyb3BpYy5jbGF1ZGUucHJvdmlkZWRqcGFyYW1ldGVyc6F4H2NvbS5hbnRocm9waWMub3JpZ2luLWNvbmZpZGVuY2VndW5rbm93bmtkZXNjcmlwdGlvbnhmQ2xhdWRlIHByb3ZpZGVkIHRoaXMgZmlsZSBhdCB0aGUgcmVxdWVzdCBvZiBhIHVzZXIgYW5kIG1heSBoYXZlIGNyZWF0ZWQgb3IgbW9kaWZpZWQgdGhlIGZpbGUgY29udGVudHMubXNvZnR3YXJlQWdlbnShZG5hbWVmQ2xhdWRlcmFsbEFjdGlvbnNJbmNsdWRlZPUAAADIanVtYgAAAEBqdW1kY2JvcgARABCAAACqADibcRNjMnBhLmhhc2guZGF0YQAAAAAYYzJzaJ+e6G2kyVyneYQ6q+1yzlgAAACAY2JvcqVjYWxnZnNoYTI1NmNwYWRNAAAAAAAAAAAAAAAAAGRoYXNoWCAnRDCPQf3bzoCGKyjgom+EDa46iaVMEbcW6teNHJDrp2RuYW1lbmp1bWJmIG1hbmlmZXN0amV4Y2x1c2lvbnOBomVzdGFydBjlZmxlbmd0aBkeBAAAAj5qdW1iAAAAJ2p1bWRjMmNsABEAEIAAAKoAOJtxA2MycGEuY2xhaW0udjIAAAACD2Nib3KlY2FsZ2ZzaGEyNTZpc2lnbmF0dXJleE1zZWxmI2p1bWJmPS9jMnBhL3VybjpjMnBhOjU5NTQ3MDYxLTNhODItNGVhMC04OTc3LTYxMWEyODk3MjIxZC9jMnBhLnNpZ25hdHVyZWppbnN0YW5jZUlEeCx4bXA6aWlkOjZmMDY3Y2VkLWFjNGMtNDk1Mi04ZWQ5LWI1YTdhM2FlNjlmM3JjcmVhdGVkX2Fzc2VydGlvbnODomN1cmx4LXNlbGYjanVtYmY9YzJwYS5hc3NlcnRpb25zL2MycGEuaW5ncmVkaWVudC52M2RoYXNoWCA6QygaBNop/4BLHafFDrcjeepTnQM72jRKwaJotaHm6KJjdXJseCpzZWxmI2p1bWJmPWMycGEuYXNzZXJ0aW9ucy9jMnBhLmFjdGlvbnMudjJkaGFzaFgg2H2wdzMBra9yEdDM2QkCNlC79NhyJNT4MvE4lLEwE4eiY3VybHgpc2VsZiNqdW1iZj1jMnBhLmFzc2VydGlvbnMvYzJwYS5oYXNoLmRhdGFkaGFzaFggFV+kxBsVke3tVjCitJF3zNjTNDikn9U+AuyOMdozCDh0Y2xhaW1fZ2VuZXJhdG9yX2luZm+jZG5hbWVvQW50aHJvcGljIEZpbGVzZ3ZlcnNpb25lMS4wLjBrc3BlY1ZlcnNpb25lMi40LjAAABA4anVtYgAAAChqdW1kYzJjcwARABCAAACqADibcQNjMnBhLnNpZ25hdHVyZQAAABAIY2JvctKEWQISogEmGCFZAgowggIGMIIBjaADAgECAhRA5aAK7sI50L64g/oGQgU9Z1UTADAKBggqhkjOPQQDAzBJMRcwFQYDVQQKEw5BbnRocm9waWMsIFBCQzEuMCwGA1UEAxMlQW50aHJvcGljIENvbnRlbnQgQ3JlZGVudGlhbHMgUm9vdCBDQTAeFw0yNjA4MDcxODQzNTZaFw0yODA4MDYxOTQzNTZaMEQxFzAVBgNVBAoTDkFudGhyb3BpYywgUEJDMSkwJwYDVQQDEyBBbnRocm9waWMgQ2xhdWRlIENvbnRlbnQgU2lnbmluZzBZMBMGByqGSM49AgEGCCqGSM49AwEHA0IABJh6CmvLUBgFFNU0vUKlOVtE6djd17L5SuwX0LemFisBM3dkd/3cyjxFA3Qo5S46fX0/ihY0VZ7mfb9KF703t5OjWDBWMA4GA1UdDwEB/wQEAwIHgDAVBgNVHSUEDjAMBgorBgEEAYPoXgIBMAwGA1UdEwEB/wQCMAAwHwYDVR0jBBgwFoAUzlHiBIFOZFsj+OPEz5o+nMHXXMIwCgYIKoZIzj0EAwMDZwAwZAIwMXMdFJ4BetLLVY7ORuE9noqbbAZOZn/aArXyTwFAZfKrPzxF2vPoJNf1+UCdg1XGAjBwX1zd9WGqYkqmL5SFqw1QySjr1zJfpJM9+1rdDwSPLMOPOjKuiXjoU/pUUeG9RwmhY3BhZFkNngAAAAAAAAAAAAAAAAAAAAAAAAAAAAAAAAAAAAAAAAAAAAAAAAAAAAAAAAAAAAAAAAAAAAAAAAAAAAAAAAAAAAAAAAAAAAAAAAAAAAAAAAAAAAAAAAAAAAAAAAAAAAAAAAAAAAAAAAAAAAAAAAAAAAAAAAAAAAAAAAAAAAAAAAAAAAAAAAAAAAAAAAAAAAAAAAAAAAAAAAAAAAAAAAAAAAAAAAAAAAAAAAAAAAAAAAAAAAAAAAAAAAAAAAAAAAAAAAAAAAAAAAAAAAAAAAAAAAAAAAAAAAAAAAAAAAAAAAAAAAAAAAAAAAAAAAAAAAAAAAAAAAAAAAAAAAAAAAAAAAAAAAAAAAAAAAAAAAAAAAAAAAAAAAAAAAAAAAAAAAAAAAAAAAAAAAAAAAAAAAAAAAAAAAAAAAAAAAAAAAAAAAAAAAAAAAAAAAAAAAAAAAAAAAAAAAAAAAAAAAAAAAAAAAAAAAAAAAAAAAAAAAAAAAAAAAAAAAAAAAAAAAAAAAAAAAAAAAAAAAAAAAAAAAAAAAAAAAAAAAAAAAAAAAAAAAAAAAAAAAAAAAAAAAAAAAAAAAAAAAAAAAAAAAAAAAAAAAAAAAAAAAAAAAAAAAAAAAAAAAAAAAAAAAAAAAAAAAAAAAAAAAAAAAAAAAAAAAAAAAAAAAAAAAAAAAAAAAAAAAAAAAAAAAAAAAAAAAAAAAAAAAAAAAAAAAAAAAAAAAAAAAAAAAAAAAAAAAAAAAAAAAAAAAAAAAAAAAAAAAAAAAAAAAAAAAAAAAAAAAAAAAAAAAAAAAAAAAAAAAAAAAAAAAAAAAAAAAAAAAAAAAAAAAAAAAAAAAAAAAAAAAAAAAAAAAAAAAAAAAAAAAAAAAAAAAAAAAAAAAAAAAAAAAAAAAAAAAAAAAAAAAAAAAAAAAAAAAAAAAAAAAAAAAAAAAAAAAAAAAAAAAAAAAAAAAAAAAAAAAAAAAAAAAAAAAAAAAAAAAAAAAAAAAAAAAAAAAAAAAAAAAAAAAAAAAAAAAAAAAAAAAAAAAAAAAAAAAAAAAAAAAAAAAAAAAAAAAAAAAAAAAAAAAAAAAAAAAAAAAAAAAAAAAAAAAAAAAAAAAAAAAAAAAAAAAAAAAAAAAAAAAAAAAAAAAAAAAAAAAAAAAAAAAAAAAAAAAAAAAAAAAAAAAAAAAAAAAAAAAAAAAAAAAAAAAAAAAAAAAAAAAAAAAAAAAAAAAAAAAAAAAAAAAAAAAAAAAAAAAAAAAAAAAAAAAAAAAAAAAAAAAAAAAAAAAAAAAAAAAAAAAAAAAAAAAAAAAAAAAAAAAAAAAAAAAAAAAAAAAAAAAAAAAAAAAAAAAAAAAAAAAAAAAAAAAAAAAAAAAAAAAAAAAAAAAAAAAAAAAAAAAAAAAAAAAAAAAAAAAAAAAAAAAAAAAAAAAAAAAAAAAAAAAAAAAAAAAAAAAAAAAAAAAAAAAAAAAAAAAAAAAAAAAAAAAAAAAAAAAAAAAAAAAAAAAAAAAAAAAAAAAAAAAAAAAAAAAAAAAAAAAAAAAAAAAAAAAAAAAAAAAAAAAAAAAAAAAAAAAAAAAAAAAAAAAAAAAAAAAAAAAAAAAAAAAAAAAAAAAAAAAAAAAAAAAAAAAAAAAAAAAAAAAAAAAAAAAAAAAAAAAAAAAAAAAAAAAAAAAAAAAAAAAAAAAAAAAAAAAAAAAAAAAAAAAAAAAAAAAAAAAAAAAAAAAAAAAAAAAAAAAAAAAAAAAAAAAAAAAAAAAAAAAAAAAAAAAAAAAAAAAAAAAAAAAAAAAAAAAAAAAAAAAAAAAAAAAAAAAAAAAAAAAAAAAAAAAAAAAAAAAAAAAAAAAAAAAAAAAAAAAAAAAAAAAAAAAAAAAAAAAAAAAAAAAAAAAAAAAAAAAAAAAAAAAAAAAAAAAAAAAAAAAAAAAAAAAAAAAAAAAAAAAAAAAAAAAAAAAAAAAAAAAAAAAAAAAAAAAAAAAAAAAAAAAAAAAAAAAAAAAAAAAAAAAAAAAAAAAAAAAAAAAAAAAAAAAAAAAAAAAAAAAAAAAAAAAAAAAAAAAAAAAAAAAAAAAAAAAAAAAAAAAAAAAAAAAAAAAAAAAAAAAAAAAAAAAAAAAAAAAAAAAAAAAAAAAAAAAAAAAAAAAAAAAAAAAAAAAAAAAAAAAAAAAAAAAAAAAAAAAAAAAAAAAAAAAAAAAAAAAAAAAAAAAAAAAAAAAAAAAAAAAAAAAAAAAAAAAAAAAAAAAAAAAAAAAAAAAAAAAAAAAAAAAAAAAAAAAAAAAAAAAAAAAAAAAAAAAAAAAAAAAAAAAAAAAAAAAAAAAAAAAAAAAAAAAAAAAAAAAAAAAAAAAAAAAAAAAAAAAAAAAAAAAAAAAAAAAAAAAAAAAAAAAAAAAAAAAAAAAAAAAAAAAAAAAAAAAAAAAAAAAAAAAAAAAAAAAAAAAAAAAAAAAAAAAAAAAAAAAAAAAAAAAAAAAAAAAAAAAAAAAAAAAAAAAAAAAAAAAAAAAAAAAAAAAAAAAAAAAAAAAAAAAAAAAAAAAAAAAAAAAAAAAAAAAAAAAAAAAAAAAAAAAAAAAAAAAAAAAAAAAAAAAAAAAAAAAAAAAAAAAAAAAAAAAAAAAAAAAAAAAAAAAAAAAAAAAAAAAAAAAAAAAAAAAAAAAAAAAAAAAAAAAAAAAAAAAAAAAAAAAAAAAAAAAAAAAAAAAAAAAAAAAAAAAAAAAAAAAAAAAAAAAAAAAAAAAAAAAAAAAAAAAAAAAAAAAAAAAAAAAAAAAAAAAAAAAAAAAAAAAAAAAAAAAAAAAAAAAAAAAAAAAAAAAAAAAAAAAAAAAAAAAAAAAAAAAAAAAAAAAAAAAAAAAAAAAAAAAAAAAAAAAAAAAAAAAAAAAAAAAAAAAAAAAAAAAAAAAAAAAAAAAAAAAAAAAAAAAAAAAAAAAAAAAAAAAAAAAAAAAAAAAAAAAAAAAAAAAAAAAAAAAAAAAAAAAAAAAAAAAAAAAAAAAAAAAAAAAAAAAAAAAAAAAAAAAAAAAAAAAAAAAAAAAAAAAAAAAAAAAAAAAAAAAAAAAAAAAAAAAAAAAAAAAAAAAAAAAAAAAAAAAAAAAAAAAAAAAAAAAAAAAAAAAAAAAAAAAAAAAAAAAAAAAAAAAAAAAAAAAAAAAAAAAAAAAAAAAAAAAAAAAAAAAAAAAAAAAAAAAAAAAAAAAAAAAAAAAAAAAAAAAAAAAAAAAAAAAAAAAAAAAAAAAAAAAAAAAAAAAAAAAAAAAAAAAAAAAAAAAAAAAAAAAAAAAAAAAAAAAAAAAAAAAAAAAAAAAAAAAAAAAAAAAAAAAAAAAAAAAAAAAAAAAAAAAAAAAAAAAAAAAAAAAAAAAAAAAAAAAAAAAAAAAAAAAAAAAAAAAAAAAAAAAAAAAAAAAAAAAAAAAAAAAAAAAAAAAAAAAAAAAAAAAAAAAAAAAAAAAAAAAAAAAAAAAAAAAAAAAAAAAAAAAAAAAAAAAAAAAAAAAAAAAAAAAAAAAAAAAAAAAAAAAAAAAAAAAAAAAAAAAAAAAAAAAAAAAAAAAAAAAAAAAAAAAAAAAAAAAAAAAAAAAAAAAAAAAAAAAAAAAAAAAAAAAAAAAAAAAAAAAAAAAAAAAAAAAAAAAAAAAAAAAAAAAAAAAAAAAAAAAAAAAAAAAAAAAAAAAAAAAAAAAAAAAAAAAAAAAAAAAAAAAAAAAAAAAAAAAAAAAAAAAAAAAAAAAAAAAAAAAAAAAAAAAAAAAAAAAAAAAAAAAAAAAAAAAAAAAAAAAAAAAAAAAAAAAAAAAAAAAAAAAAAAAAAAAAAAAAAAAAAAAAAAAAAAAAAAAAAAAAAAAAAAAAAAAAAAAAAAAAAAAAAAAAAAAAAAAAAAAAAAAAAAAAAAAAAAAAAAAAAAAAAAAAAAAAAAAAAAAAAAAAAAAAAAAAAAAAAAAAAAAAAAAAAAAAAAAAAAAAAAAAAAAAAAAAAAAAAAAAAAAAAAAAAAAAAAAAAAAAAAAAAAAAAAAAAAAAAAAAAAAAAAAAAAAAAAAAAAAAAAAAAAAAAAAAAAAAAAAAAAAAAAAAAAAAAAAAAAAAAAAAAAAAAAAAAAAAAAAAAAAAAAAAAAAAAAAAAAAAAAAAAAAAAAAAAAAAAAAAAAAAAAAAAAAAAAAAAAAAAAAAAAAAAAAAAAAAAAAAAAAAAAAAAAAAAAAAAAAAAAAAAAAAAAAAAAAAAAAAAAAAAAAAAAAAAAAAAAAAAAAAAAAAAAAAAAAAAAAAAAAAAAAAAAAAAAAAAAAAAAAAAAAAAAAAAAAAAAAAAAAAAAAAAAAAAAAAAAAAAAAAAAAAAAAAAAAAAAAAAAAAAAAAAAAAAAAAAAAAAAAAAAAAAAAAAAAAAAAAAAAAAAAAAAAAAAAAAAAAAAAAAAAAAAAAAAAAAAAAAAAAAAAAAAAAAAAAAAAAAAAAAAAAAAAAAAAAAAAAAAAAAAAAAAAAAAAAAAAAAAAAAAAAAAAAAAAAAAAAAAAAAAAAAAAAAAAAAAAAAAAAAAAAAAAAAAAAAAAAAAAAAAAAAAAAAAAAAAAAAAAAAAAAAAAAAAAAAAAAAAAAAAAAAAAAAAAAAAAAAAAAAAAAAAAAAAAAAAAAAAAAAAAAAAAAAAAAAAAAAAAAAAAAAAAAAAAAAAAAAAAAAAAAAAAAAAPZYQKjkC3ZLYzkaPn4TCChPwlYNvj6k4a4rPVId8F+tmyl1pJ2/8ws4qIsEJRfvyH4dNBGNeGHxaiG/x+g6iKZK6kM=</c2pa:manifest></metadata><defs><clipPath id="dylanb"><path d="M99,165.4 C79,168.4 42,173.4 30,191.4 C26,215.4 28,236 28,262 C28,284 34,294 34,306 L51.2,306 L68.4,308.6 L85.6,304.7 L102.8,307.3 L120,303.4 L137.2,306 L154.4,308.6 L171.6,304.7 L188.8,307.3 L206,303.4 C206,294 212,284 212,262 C212,236 214,215.4 210,191.4 C198,173.4 161,168.4 141,165.4Z"></path></clipPath><clipPath id="dylanh"><path d="M120,34 C149,34 170,61.720000000000006 170,100 C170,138.28 144.65,166 120,166 C95.35000000000001,166 70,138.28 70,100 C70,61.720000000000006 91,34 120,34Z"></path></clipPath><filter id="dylanc" x="-12%" y="-10%" width="124%" height="120%" color-interpolation-filters="sRGB"><feMorphology in="SourceAlpha" operator="dilate" radius="5" result="d"></feMorphology><feTurbulence type="fractalNoise" baseFrequency="0.045" numOctaves="2" seed="8" result="n"></feTurbulence><feDisplacementMap in="d" in2="n" scale="9" xChannelSelector="R" yChannelSelector="G" result="dd"></feDisplacementMap><feFlood flood-color="#FFFFFF" result="w"></feFlood><feComposite in="w" in2="dd" operator="in" result="wb"></feComposite><feOffset in="dd" dx="4" dy="5" result="so"></feOffset><feFlood flood-color="#151515" flood-opacity=".3"></feFlood><feComposite in2="so" operator="in" result="shd"></feComposite><feTurbulence type="fractalNoise" baseFrequency=".85" numOctaves="2" seed="15" result="g"></feTurbulence><feColorMatrix in="g" type="matrix" values="0 0 0 0 0.08  0 0 0 0 0.08  0 0 0 0 0.08  0.55 0 0 0 -0.24" result="ga"></feColorMatrix><feComposite in="ga" in2="SourceAlpha" operator="in" result="gr"></feComposite><feMerge><feMergeNode in="shd"></feMergeNode><feMergeNode in="wb"></feMergeNode><feMergeNode in="SourceGraphic"></feMergeNode><feMergeNode in="gr"></feMergeNode></feMerge></filter></defs><g filter="url(#dylanc)"><g id="cheveux_arriere" data-calque="cheveux_arriere"></g><g id="corps" data-calque="corps"><rect x="99" y="126.4" width="42" height="55" fill="#D9A27E"></rect><path d="M99,165.4 C79,168.4 42,173.4 30,191.4 C26,215.4 28,236 28,262 C28,284 34,294 34,306 L51.2,306 L68.4,308.6 L85.6,304.7 L102.8,307.3 L120,303.4 L137.2,306 L154.4,308.6 L171.6,304.7 L188.8,307.3 L206,303.4 C206,294 212,284 212,262 C212,236 214,215.4 210,191.4 C198,173.4 161,168.4 141,165.4Z" fill="#D9A27E"></path></g><g id="maillot" data-calque="maillot"><g clip-path="url(#dylanb)"><path d="M99,165.4 C79,168.4 42,173.4 30,191.4 C27,199.4 26,209.4 26,219.4 L44,223.4 C44,245.4 44,238 44,262 C44,284 50,294 50,306 L64,306 L78,308.6 L92,304.7 L106,307.3 L120,303.4 L134,306 L148,308.6 L162,304.7 L176,307.3 L190,303.4 C190,294 196,284 196,262 C196,238 196,245.4 196,223.4 L214,219.4 C214,209.4 213,199.4 210,191.4 C198,173.4 161,168.4 141,165.4Z" fill="#2446B0"></path><path d="M26,219.4 L44,223.4 M214,219.4 L196,223.4" stroke="#FFFFFF" stroke-width="4"></path><path d="M95,162.4 L120,193.4 L145,162.4Z" fill="#FFFFFF"></path><path d="M103,162.4 L120,183.4 L137,162.4Z" fill="#D9A27E"></path><path d="M154,199.4 h17 v11 q0,9 -8.5,12 q-8.5,-3 -8.5,-12Z" fill="#FFFFFF"></path><path d="M160,201.4 v19" stroke="#2446B0" stroke-width="4"></path></g></g><g id="ombres" data-calque="ombres"><g transform="translate(1.5 1)"><g clip-path="url(#dylanb)" fill="#151515" opacity=".2"><ellipse cx="120" cy="167.4" rx="31" ry="14"></ellipse><path d="M166,165.4 C212,175.4 222,250 206,316 L167.3,316 C184.39999999999998,250 175.2,195.4 166,165.4Z"></path></g></g></g><g id="tete" data-calque="tete"><ellipse cx="71.5" cy="103.96" rx="8.58" ry="11.22" fill="#D9A27E"></ellipse><ellipse cx="168.5" cy="103.96" rx="8.58" ry="11.22" fill="#D9A27E"></ellipse><ellipse cx="71.5" cy="103.96" rx="4.29" ry="5.9399999999999995" fill="#b6896b"></ellipse><ellipse cx="168.5" cy="103.96" rx="4.29" ry="5.9399999999999995" fill="#b6896b"></ellipse><path d="M120,34 C149,34 170,61.720000000000006 170,100 C170,138.28 144.65,166 120,166 C95.35000000000001,166 70,138.28 70,100 C70,61.720000000000006 91,34 120,34Z" fill="#D9A27E"></path><g clip-path="url(#dylanh)"><ellipse cx="172.5" cy="106.6" rx="22.5" ry="79.2" fill="#151515" opacity=".13"></ellipse><path d="M72.5,113.2 C75,169.3 165,169.3 167.5,113.2 C150,133 90,133 72.5,113.2Z" fill="#2A1E16" opacity="0.28"></path></g><path d="M94,109 Q101,114 108,109 M132,109 Q139,114 146,109" fill="none" stroke="#947159" stroke-width="2.5" stroke-linecap="round"></path></g><g id="cheveux" data-calque="cheveux"><path d="M69,103.3 C66.5,6.5 173.5,6.5 171,103.3 C164,71.6 145,63.7 120,63.7 C95,63.7 76,71.6 69,103.3Z" fill="#2A1E16"></path><path fill="#2A1E16" d="M80,60.4 C85,1 145,-5.6000000000000085 167.5,30.700000000000003 C172.5,43.9 160,53.800000000000004 145,59.08 C120,47.199999999999996 100,59.08 80,60.4Z"></path><rect x="70.5" y="90.1" width="5" height="25.080000000000002" fill="#2A1E16"></rect><rect x="164.5" y="90.1" width="5" height="25.080000000000002" fill="#2A1E16"></rect><path d="M95,30.700000000000003 C115,10.899999999999991 145,14.200000000000003 157.5,30.700000000000003" fill="none" stroke="#6a625c" stroke-width="3.5" stroke-linecap="round"></path></g><g id="yeux" data-calque="yeux"><path d="M93.5,103 Q101,93 108.5,103" fill="none" stroke="#151515" stroke-width="3.8" stroke-linecap="round"></path><path d="M90,105 q3,6 0,9 q-3,-3 0,-9Z" fill="#2446B0"></path><path d="M131.5,103 Q139,93 146.5,103" fill="none" stroke="#151515" stroke-width="3.8" stroke-linecap="round"></path><path d="M150,105 q3,6 0,9 q-3,-3 0,-9Z" fill="#2446B0"></path></g><g id="sourcils" data-calque="sourcils"><rect x="92" y="74.25" width="18" height="5.5" rx="2.75" fill="#2A1E16" transform="rotate(-6 101 77)"></rect><rect x="130" y="74.25" width="18" height="5.5" rx="2.75" fill="#2A1E16" transform="rotate(6 139 77)"></rect></g><g id="nez" data-calque="nez"><ellipse cx="122" cy="121.8" rx="5" ry="6.6000000000000005" fill="#be8e6f"></ellipse></g><g id="bouche" data-calque="bouche"><path d="M102.95,135.28 Q120,139.28 137.05,135.28 Q133.75,164.28 120,165.28 Q106.25,164.28 102.95,135.28Z" fill="#151515"></path><path d="M104.875,136.28 Q120,140.28 135.125,136.28 L133.75,142.28 Q120,146.28 106.25,142.28Z" fill="#FFFFFF"></path><ellipse cx="120" cy="157.28" rx="8.25" ry="6" fill="#E1341E"></ellipse></g><g id="moustache" data-calque="moustache"></g><g id="accessoires" data-calque="accessoires"><path d="M97,169.4 Q120,205.4 143,169.4" fill="none" stroke="#F2C94C" stroke-width="4.5" stroke-dasharray="5 2.5" stroke-linecap="round"></path><circle cx="120" cy="192.4" r="6" fill="#F2C94C"></circle></g></g></svg>