<svg xmlns="http://www.w3.org/2000/svg" viewBox="-12 -10 264 336" width="264" height="336" preserveAspectRatio="xMidYMax meet" style="display:block;overflow:visible" xmlns:c2pa="http://c2pa.org/manifest"><metadata><c2pa:manifest>AAAWgmp1bWIAAAAeanVtZGMycGEAEQAQgAAAqgA4m3EDYzJwYQAAABZcanVtYgAAAEdqdW1kYzJtYQARABCAAACqADibcQN1cm46YzJwYTowNWQ4N2MyYy03MTEwLTRhOTUtOGNjYi04MmNhYTc5Nzc3YmUAAAADl2p1bWIAAAApanVtZGMyYXMAEQAQgAAAqgA4m3EDYzJwYS5hc3NlcnRpb25zAAAAALxqdW1iAAAARGp1bWRjYm9yABEAEIAAAKoAOJtxE2MycGEuaW5ncmVkaWVudC52MwAAAAAYYzJzaAhlzRnmpvWs/jrJq1fI6iIAAABwY2JvcqNpZGM6Zm9ybWF0bWltYWdlL3N2Zyt4bWxqaW5zdGFuY2VJRHgseG1wOmlpZDo3NmU3MmUxNS00YWY3LTRhN2QtOTE3Yi04ZGU0YWEyNWIwMTdscmVsYXRpb25zaGlwaHBhcmVudE9mAAAB4mp1bWIAAABBanVtZGNib3IAEQAQgAAAqgA4m3ETYzJwYS5hY3Rpb25zLnYyAAAAABhjMnNo/ucsO1qdWVEuIRuDKtEoBAAAAZljYm9yomdhY3Rpb25zgqJmYWN0aW9ua2MycGEub3BlbmVkanBhcmFtZXRlcnOha2luZ3JlZGllbnRzgaJjdXJseC1zZWxmI2p1bWJmPWMycGEuYXNzZXJ0aW9ucy9jMnBhLmluZ3JlZGllbnQudjNkaGFzaFggIkSCHR1nTj6ZhWjaVCONkCmkQViI1eIIb3Am/2dplFWkZmFjdGlvbngdY29tLmFudGhyb3BpYy5jbGF1ZGUucHJvdmlkZWRqcGFyYW1ldGVyc6F4H2NvbS5hbnRocm9waWMub3JpZ2luLWNvbmZpZGVuY2VndW5rbm93bmtkZXNjcmlwdGlvbnhmQ2xhdWRlIHByb3ZpZGVkIHRoaXMgZmlsZSBhdCB0aGUgcmVxdWVzdCBvZiBhIHVzZXIgYW5kIG1heSBoYXZlIGNyZWF0ZWQgb3IgbW9kaWZpZWQgdGhlIGZpbGUgY29udGVudHMubXNvZnR3YXJlQWdlbnShZG5hbWVmQ2xhdWRlcmFsbEFjdGlvbnNJbmNsdWRlZPUAAADIanVtYgAAAEBqdW1kY2JvcgARABCAAACqADibcRNjMnBhLmhhc2guZGF0YQAAAAAYYzJzaHMc39K2BOkw3VMshaXLDv4AAACAY2JvcqVjYWxnZnNoYTI1NmNwYWRNAAAAAAAAAAAAAAAAAGRoYXNoWCAqRWkm8vIqj39uWvYJoYMp9IhEaBmqYI8cS4yiUxeRZWRuYW1lbmp1bWJmIG1hbmlmZXN0amV4Y2x1c2lvbnOBomVzdGFydBjlZmxlbmd0aBkeBAAAAj5qdW1iAAAAJ2p1bWRjMmNsABEAEIAAAKoAOJtxA2MycGEuY2xhaW0udjIAAAACD2Nib3KlY2FsZ2ZzaGEyNTZpc2lnbmF0dXJleE1zZWxmI2p1bWJmPS9jMnBhL3VybjpjMnBhOjA1ZDg3YzJjLTcxMTAtNGE5NS04Y2NiLTgyY2FhNzk3NzdiZS9jMnBhLnNpZ25hdHVyZWppbnN0YW5jZUlEeCx4bXA6aWlkOmYzZDg2NzhkLWMwYmEtNDhmOC1iNTk3LWMyNTA2ZWZkZjliYnJjcmVhdGVkX2Fzc2VydGlvbnODomN1cmx4LXNlbGYjanVtYmY9YzJwYS5hc3NlcnRpb25zL2MycGEuaW5ncmVkaWVudC52M2RoYXNoWCAiRIIdHWdOPpmFaNpUI42QKaRBWIjV4ghvcCb/Z2mUVaJjdXJseCpzZWxmI2p1bWJmPWMycGEuYXNzZXJ0aW9ucy9jMnBhLmFjdGlvbnMudjJkaGFzaFggfbuZLXEcKvqLS5esJ2Ng1Q6NLtakHp5Q35N9Me+On3eiY3VybHgpc2VsZiNqdW1iZj1jMnBhLmFzc2VydGlvbnMvYzJwYS5oYXNoLmRhdGFkaGFzaFgg8WL2XoSTK9scjOPNqxP6y3GaJXa88hAHNWBc+YssY8p0Y2xhaW1fZ2VuZXJhdG9yX2luZm+jZG5hbWVvQW50aHJvcGljIEZpbGVzZ3ZlcnNpb25lMS4wLjBrc3BlY1ZlcnNpb25lMi40LjAAABA4anVtYgAAAChqdW1kYzJjcwARABCAAACqADibcQNjMnBhLnNpZ25hdHVyZQAAABAIY2JvctKEWQISogEmGCFZAgowggIGMIIBjaADAgECAhRA5aAK7sI50L64g/oGQgU9Z1UTADAKBggqhkjOPQQDAzBJMRcwFQYDVQQKEw5BbnRocm9waWMsIFBCQzEuMCwGA1UEAxMlQW50aHJvcGljIENvbnRlbnQgQ3JlZGVudGlhbHMgUm9vdCBDQTAeFw0yNjA4MDcxODQzNTZaFw0yODA4MDYxOTQzNTZaMEQxFzAVBgNVBAoTDkFudGhyb3BpYywgUEJDMSkwJwYDVQQDEyBBbnRocm9waWMgQ2xhdWRlIENvbnRlbnQgU2lnbmluZzBZMBMGByqGSM49AgEGCCqGSM49AwEHA0IABJh6CmvLUBgFFNU0vUKlOVtE6djd17L5SuwX0LemFisBM3dkd/3cyjxFA3Qo5S46fX0/ihY0VZ7mfb9KF703t5OjWDBWMA4GA1UdDwEB/wQEAwIHgDAVBgNVHSUEDjAMBgorBgEEAYPoXgIBMAwGA1UdEwEB/wQCMAAwHwYDVR0jBBgwFoAUzlHiBIFOZFsj+OPEz5o+nMHXXMIwCgYIKoZIzj0EAwMDZwAwZAIwMXMdFJ4BetLLVY7ORuE9noqbbAZOZn/aArXyTwFAZfKrPzxF2vPoJNf1+UCdg1XGAjBwX1zd9WGqYkqmL5SFqw1QySjr1zJfpJM9+1rdDwSPLMOPOjKuiXjoU/pUUeG9RwmhY3BhZFkNngAAAAAAAAAAAAAAAAAAAAAAAAAAAAAAAAAAAAAAAAAAAAAAAAAAAAAAAAAAAAAAAAAAAAAAAAAAAAAAAAAAAAAAAAAAAAAAAAAAAAAAAAAAAAAAAAAAAAAAAAAAAAAAAAAAAAAAAAAAAAAAAAAAAAAAAAAAAAAAAAAAAAAAAAAAAAAAAAAAAAAAAAAAAAAAAAAAAAAAAAAAAAAAAAAAAAAAAAAAAAAAAAAAAAAAAAAAAAAAAAAAAAAAAAAAAAAAAAAAAAAAAAAAAAAAAAAAAAAAAAAAAAAAAAAAAAAAAAAAAAAAAAAAAAAAAAAAAAAAAAAAAAAAAAAAAAAAAAAAAAAAAAAAAAAAAAAAAAAAAAAAAAAAAAAAAAAAAAAAAAAAAAAAAAAAAAAAAAAAAAAAAAAAAAAAAAAAAAAAAAAAAAAAAAAAAAAAAAAAAAAAAAAAAAAAAAAAAAAAAAAAAAAAAAAAAAAAAAAAAAAAAAAAAAAAAAAAAAAAAAAAAAAAAAAAAAAAAAAAAAAAAAAAAAAAAAAAAAAAAAAAAAAAAAAAAAAAAAAAAAAAAAAAAAAAAAAAAAAAAAAAAAAAAAAAAAAAAAAAAAAAAAAAAAAAAAAAAAAAAAAAAAAAAAAAAAAAAAAAAAAAAAAAAAAAAAAAAAAAAAAAAAAAAAAAAAAAAAAAAAAAAAAAAAAAAAAAAAAAAAAAAAAAAAAAAAAAAAAAAAAAAAAAAAAAAAAAAAAAAAAAAAAAAAAAAAAAAAAAAAAAAAAAAAAAAAAAAAAAAAAAAAAAAAAAAAAAAAAAAAAAAAAAAAAAAAAAAAAAAAAAAAAAAAAAAAAAAAAAAAAAAAAAAAAAAAAAAAAAAAAAAAAAAAAAAAAAAAAAAAAAAAAAAAAAAAAAAAAAAAAAAAAAAAAAAAAAAAAAAAAAAAAAAAAAAAAAAAAAAAAAAAAAAAAAAAAAAAAAAAAAAAAAAAAAAAAAAAAAAAAAAAAAAAAAAAAAAAAAAAAAAAAAAAAAAAAAAAAAAAAAAAAAAAAAAAAAAAAAAAAAAAAAAAAAAAAAAAAAAAAAAAAAAAAAAAAAAAAAAAAAAAAAAAAAAAAAAAAAAAAAAAAAAAAAAAAAAAAAAAAAAAAAAAAAAAAAAAAAAAAAAAAAAAAAAAAAAAAAAAAAAAAAAAAAAAAAAAAAAAAAAAAAAAAAAAAAAAAAAAAAAAAAAAAAAAAAAAAAAAAAAAAAAAAAAAAAAAAAAAAAAAAAAAAAAAAAAAAAAAAAAAAAAAAAAAAAAAAAAAAAAAAAAAAAAAAAAAAAAAAAAAAAAAAAAAAAAAAAAAAAAAAAAAAAAAAAAAAAAAAAAAAAAAAAAAAAAAAAAAAAAAAAAAAAAAAAAAAAAAAAAAAAAAAAAAAAAAAAAAAAAAAAAAAAAAAAAAAAAAAAAAAAAAAAAAAAAAAAAAAAAAAAAAAAAAAAAAAAAAAAAAAAAAAAAAAAAAAAAAAAAAAAAAAAAAAAAAAAAAAAAAAAAAAAAAAAAAAAAAAAAAAAAAAAAAAAAAAAAAAAAAAAAAAAAAAAAAAAAAAAAAAAAAAAAAAAAAAAAAAAAAAAAAAAAAAAAAAAAAAAAAAAAAAAAAAAAAAAAAAAAAAAAAAAAAAAAAAAAAAAAAAAAAAAAAAAAAAAAAAAAAAAAAAAAAAAAAAAAAAAAAAAAAAAAAAAAAAAAAAAAAAAAAAAAAAAAAAAAAAAAAAAAAAAAAAAAAAAAAAAAAAAAAAAAAAAAAAAAAAAAAAAAAAAAAAAAAAAAAAAAAAAAAAAAAAAAAAAAAAAAAAAAAAAAAAAAAAAAAAAAAAAAAAAAAAAAAAAAAAAAAAAAAAAAAAAAAAAAAAAAAAAAAAAAAAAAAAAAAAAAAAAAAAAAAAAAAAAAAAAAAAAAAAAAAAAAAAAAAAAAAAAAAAAAAAAAAAAAAAAAAAAAAAAAAAAAAAAAAAAAAAAAAAAAAAAAAAAAAAAAAAAAAAAAAAAAAAAAAAAAAAAAAAAAAAAAAAAAAAAAAAAAAAAAAAAAAAAAAAAAAAAAAAAAAAAAAAAAAAAAAAAAAAAAAAAAAAAAAAAAAAAAAAAAAAAAAAAAAAAAAAAAAAAAAAAAAAAAAAAAAAAAAAAAAAAAAAAAAAAAAAAAAAAAAAAAAAAAAAAAAAAAAAAAAAAAAAAAAAAAAAAAAAAAAAAAAAAAAAAAAAAAAAAAAAAAAAAAAAAAAAAAAAAAAAAAAAAAAAAAAAAAAAAAAAAAAAAAAAAAAAAAAAAAAAAAAAAAAAAAAAAAAAAAAAAAAAAAAAAAAAAAAAAAAAAAAAAAAAAAAAAAAAAAAAAAAAAAAAAAAAAAAAAAAAAAAAAAAAAAAAAAAAAAAAAAAAAAAAAAAAAAAAAAAAAAAAAAAAAAAAAAAAAAAAAAAAAAAAAAAAAAAAAAAAAAAAAAAAAAAAAAAAAAAAAAAAAAAAAAAAAAAAAAAAAAAAAAAAAAAAAAAAAAAAAAAAAAAAAAAAAAAAAAAAAAAAAAAAAAAAAAAAAAAAAAAAAAAAAAAAAAAAAAAAAAAAAAAAAAAAAAAAAAAAAAAAAAAAAAAAAAAAAAAAAAAAAAAAAAAAAAAAAAAAAAAAAAAAAAAAAAAAAAAAAAAAAAAAAAAAAAAAAAAAAAAAAAAAAAAAAAAAAAAAAAAAAAAAAAAAAAAAAAAAAAAAAAAAAAAAAAAAAAAAAAAAAAAAAAAAAAAAAAAAAAAAAAAAAAAAAAAAAAAAAAAAAAAAAAAAAAAAAAAAAAAAAAAAAAAAAAAAAAAAAAAAAAAAAAAAAAAAAAAAAAAAAAAAAAAAAAAAAAAAAAAAAAAAAAAAAAAAAAAAAAAAAAAAAAAAAAAAAAAAAAAAAAAAAAAAAAAAAAAAAAAAAAAAAAAAAAAAAAAAAAAAAAAAAAAAAAAAAAAAAAAAAAAAAAAAAAAAAAAAAAAAAAAAAAAAAAAAAAAAAAAAAAAAAAAAAAAAAAAAAAAAAAAAAAAAAAAAAAAAAAAAAAAAAAAAAAAAAAAAAAAAAAAAAAAAAAAAAAAAAAAAAAAAAAAAAAAAAAAAAAAAAAAAAAAAAAAAAAAAAAAAAAAAAAAAAAAAAAAAAAAAAAAAAAAAAAAAAAAAAAAAAAAAAAAAAAAAAAAAAAAAAAAAAAAAAAAAAAAAAAAAAAAAAAAAAAAAAAAAAAAAAAAAAAAAAAAAAAAAAAAAAAAAAAAAAAAAAAAAAAAAAAAAAAAAAAAAAAAAAAAAAAAAAAAAAAAAAAAAAAAAAAAAAAAAAAAAAAAAAAAAAAAAAAAAAAAAAAAAAAAAAAAAAAAAAAAAAAAAAAAAAAAAAAAAAAAAAAAAAAAAAAAAAAAAAAAAAAAAAAAAAAAAAAAAAAAAAAAAAAAAAAAAAAAAAAAAAAAAAAAAAAAAAAAAAAAAAAAAAAAAAAAAAAAAAAAAAAAAAAAAAAAAAAAAAAAAAAAAAAAAAAAAAAAAAAAAAAAAAAAAAAAAAAAAAAAAAAAAAAAAAAAAAAAAAAAAAAAAAAAAAAAAAAAAAAAAAAAAAAAAAAAAAAAAAAAAAAAAAAAAAAAAAAAAAAAAAAAAAAAAAAAAAAAAAAAAAAAAAAAAAAAAAAAAAAAAAAAAAAAAAAAAAAAAAAAAAAAAAAAAAAAAAAAAAAAAAAAAAAAAAAAAAAAAAAAAAAAAAAAAAAAAAAAAAAAAAAAAAAAAAAAAAAAAAAAAAAAAAAAAAAAAAAAAAAAAAAAAAAAAAAAAAAAAAAAAAAAAAAAAAAAAAAAAAAAAAAAAAAAAAAAAAAAAAAAAAAAAAAAAAAAAAAAAAAAAAAAAAAAAAAAAAAAAAAAAAAAAAAAAAAAAAAAAAAAAAAAAAAAAAAAAAAAAAAAAAAAAAAAAAAAAAAAAAAAAAAAAAAAAAAAAAAAAAAAAAAAAAAAAAAAAAAAAAAAAAAAAAAAAAAAAAAAAAAAAAAAAAAAAAAAAAAAAAAAAAAAAAAAAAAAAAAAAAAAAAAAAAAAAAAAAAAAAAAAAAAAAAAAAAAAAAAAAAAAAAAAAAAAAAAAAAAAAAAAAAAAAAAAAAAAAAAAAAAAAAAAAAAAAAAAAAAAAAAAAAAAAAAAAAAAAAAAAAAAAAAAAAAAAAAAAAAAAAAAAAAAAAAAAAAAAAAAAAAAAAAAAAAAAAAAAAAAAAAAAAAAAAAAAAAAAAAAAAAAAAAAAAAAAAAAAAAAAAAAAAAAAAAAAAAAAAAAAAAAAAAAAAAAAAAAAAAAAAAAAAAAAAAAAAAAAAAAAAAAAAAAAAAAAAAAAAAAAAAAAAAAAAAAAAAAAAAAAAAAAAAAAAAAAAAAAAAAAAAAAAAAAAAAAAAAAAAAAAAAAAAAAAAAAAAAAAAAAAAAAAAAAAAAAAAAAAAAAAAAAAAAAAAAAAAAAAAAAAAAAAAAAAAAAAAAAAAAAAAAAAAAAAAAAAAAAAAAAAAAAAAAAAAAAAAAAAAAAAAAAAAAAAAAAAAAAAAAAAAAAAAAAAAAAAAAAAAAAAAAAAAAAAAAAAAAAAAAAAAAAAAAAAAAAAAAAAAAAAAAAAAAAAAAAAAAAAAAAAAAAAAAAAAAAAAAAAAAAAAAAAAAAAAAAAAAAAAAAAAAAAAAAAAAAAAAAAAAAAAPZYQAvT6dAZ6uhu8O/eopUZfbsq4x6Xt2jtfe5IlJBtlu8eHzacEVU4b6ix7DVO6lDeZw4m3fB4lU71gmhhlBOFtes=</c2pa:manifest></metadata><defs><clipPath id="fredb"><path d="M97.3,161.8 C77.3,164.8 34,169.8 22,187.8 C18,211.8 12.8,236 12.8,262 C12.8,284 22,294 22,306 L41.6,306 L61.2,308.6 L80.8,304.7 L100.4,307.3 L120,303.4 L139.6,306 L159.2,308.6 L178.8,304.7 L198.4,307.3 L218,303.4 C218,294 227.2,284 227.2,262 C227.2,236 222,211.8 218,187.8 C206,169.8 162.7,164.8 142.7,161.8Z"></path></clipPath><clipPath id="fredh"><path d="M120,38 C152.4,38 174,65.28 174,106.2 C174,139.68 152.4,162 120,162 C87.6,162 66,139.68 66,106.2 C66,65.28 87.6,38 120,38Z"></path></clipPath><filter id="fredc" x="-12%" y="-10%" width="124%" height="120%" color-interpolation-filters="sRGB"><feMorphology in="SourceAlpha" operator="dilate" radius="5" result="d"></feMorphology><feTurbulence type="fractalNoise" baseFrequency="0.045" numOctaves="2" seed="26" result="n"></feTurbulence><feDisplacementMap in="d" in2="n" scale="9" xChannelSelector="R" yChannelSelector="G" result="dd"></feDisplacementMap><feFlood flood-color="#FFFFFF" result="w"></feFlood><feComposite in="w" in2="dd" operator="in" result="wb"></feComposite><feOffset in="dd" dx="4" dy="5" result="so"></feOffset><feFlood flood-color="#151515" flood-opacity=".3"></feFlood><feComposite in2="so" operator="in" result="shd"></feComposite><feTurbulence type="fractalNoise" baseFrequency=".85" numOctaves="2" seed="33" result="g"></feTurbulence><feColorMatrix in="g" type="matrix" values="0 0 0 0 0.08  0 0 0 0 0.08  0 0 0 0 0.08  0.55 0 0 0 -0.24" result="ga"></feColorMatrix><feComposite in="ga" in2="SourceAlpha" operator="in" result="gr"></feComposite><feMerge><feMergeNode in="shd"></feMergeNode><feMergeNode in="wb"></feMergeNode><feMergeNode in="SourceGraphic"></feMergeNode><feMergeNode in="gr"></feMergeNode></feMerge></filter></defs><g filter="url(#fredc)"><g id="cheveux_arriere" data-calque="cheveux_arriere"></g><g id="corps" data-calque="corps"><rect x="97.32" y="124.8" width="45.36" height="53.000000000000014" fill="#EBC09C"></rect><path d="M97.3,161.8 C77.3,164.8 34,169.8 22,187.8 C18,211.8 12.8,236 12.8,262 C12.8,284 22,294 22,306 L41.6,306 L61.2,308.6 L80.8,304.7 L100.4,307.3 L120,303.4 L139.6,306 L159.2,308.6 L178.8,304.7 L198.4,307.3 L218,303.4 C218,294 227.2,284 227.2,262 C227.2,236 222,211.8 218,187.8 C206,169.8 162.7,164.8 142.7,161.8Z" fill="#EBC09C"></path></g><g id="maillot" data-calque="maillot"><g clip-path="url(#fredb)"><path d="M97.3,161.8 C77.3,164.8 34,169.8 22,187.8 C18,211.8 12.8,236 12.8,262 C12.8,284 22,294 22,306 L41.6,306 L61.2,308.6 L80.8,304.7 L100.4,307.3 L120,303.4 L139.6,306 L159.2,308.6 L178.8,304.7 L198.4,307.3 L218,303.4 C218,294 227.2,284 227.2,262 C227.2,236 222,211.8 218,187.8 C206,169.8 162.7,164.8 142.7,161.8Z" fill="#3F5A26"></path><path d="M12.799999999999997,241.8 L227.2,201.8 L227.2,219.8 L12.799999999999997,259.8Z" fill="#F2C94C"></path><path d="M98,158.8 Q120,177.8 142,158.8Z" fill="#EBC09C"></path><path d="M97,158.8 Q120,178.8 143,158.8" fill="none" stroke="#F2C94C" stroke-width="4.5"></path></g></g><g id="ombres" data-calque="ombres"><g transform="translate(1.5 1)"><g clip-path="url(#fredb)" fill="#151515" opacity=".2"><ellipse cx="120" cy="163.8" rx="33.48" ry="14"></ellipse><path d="M170,161.8 C220,171.8 237.2,250 218,316 L173.9,316 C195.04,250 180,191.8 170,161.8Z"></path></g></g></g><g id="tete" data-calque="tete"><ellipse cx="67.62" cy="103.72" rx="8.06" ry="10.540000000000001" fill="#EBC09C"></ellipse><ellipse cx="172.38" cy="103.72" rx="8.06" ry="10.540000000000001" fill="#EBC09C"></ellipse><ellipse cx="67.62" cy="103.72" rx="4.03" ry="5.58" fill="#c4a184"></ellipse><ellipse cx="172.38" cy="103.72" rx="4.03" ry="5.58" fill="#c4a184"></ellipse><path d="M120,38 C152.4,38 174,65.28 174,106.2 C174,139.68 152.4,162 120,162 C87.6,162 66,139.68 66,106.2 C66,65.28 87.6,38 120,38Z" fill="#EBC09C"></path><g clip-path="url(#fredh)"><ellipse cx="176.7" cy="106.2" rx="24.3" ry="74.39999999999999" fill="#151515" opacity=".13"></ellipse><path d="M68.7,112.4 C71.4,165.10000000000002 168.6,165.10000000000002 171.3,112.4 C152.4,131 87.6,131 68.7,112.4Z" fill="#6B4A2A" opacity="0.28"></path></g></g><g id="cheveux" data-calque="cheveux"><path d="M64.9,100 C62.2,13.2 177.8,13.2 175.1,100 C167.5,73.3 147,65.9 120,65.9 C93,65.9 72.5,73.3 64.9,100Z" fill="#6B4A2A"></path><path d="M70.4,71.8 L54.7,63.7 L76.3,55.6Z" fill="#6B4A2A"></path><path d="M77.9,49.1 L75.5,26.2 L89.8,36.5Z" fill="#6B4A2A"></path><path d="M92.3,32.2 L87.5,15.2 L108.2,25.3Z" fill="#6B4A2A"></path><path d="M111.3,23.8 L126.3,6.3 L128.6,23.7Z" fill="#6B4A2A"></path><path d="M131.6,25.2 L140.6,10.1 L147.5,32.1Z" fill="#6B4A2A"></path><path d="M150.1,36.4 L173.1,35.3 L162,48.9Z" fill="#6B4A2A"></path><path d="M163.6,55.4 L180.8,51.5 L169.6,71.6Z" fill="#6B4A2A"></path></g><g id="yeux" data-calque="yeux"><path d="M91.98,103 Q99.48,93 106.98,103" fill="none" stroke="#151515" stroke-width="3.8" stroke-linecap="round"></path><path d="M88.48,105 q3,6 0,9 q-3,-3 0,-9Z" fill="#2446B0"></path><path d="M133.02,103 Q140.52,93 148.02,103" fill="none" stroke="#151515" stroke-width="3.8" stroke-linecap="round"></path><path d="M151.52,105 q3,6 0,9 q-3,-3 0,-9Z" fill="#2446B0"></path></g><g id="sourcils" data-calque="sourcils"><rect x="90.48" y="74" width="18" height="6" rx="3" fill="#5A3E22" transform="rotate(-6 99.48 77)"></rect><rect x="131.52" y="74" width="18" height="6" rx="3" fill="#5A3E22" transform="rotate(6 140.52 77)"></rect></g><g id="nez" data-calque="nez"><ellipse cx="122" cy="120.6" rx="5.4" ry="6.2" fill="#cda889"></ellipse></g><g id="bouche" data-calque="bouche"><path d="M101.586,132.96 Q120,136.96 138.414,132.96 Q134.85,161.96 120,162.96 Q105.15,161.96 101.586,132.96Z" fill="#151515"></path><path d="M103.66499999999999,133.96 Q120,137.96 136.335,133.96 L134.85,139.96 Q120,143.96 105.15,139.96Z" fill="#FFFFFF"></path><ellipse cx="120" cy="154.96" rx="8.91" ry="6" fill="#E1341E"></ellipse></g><g id="moustache" data-calque="moustache"></g><g id="accessoires" data-calque="accessoires"><g transform="translate(38.8,282) rotate(-10)"><rect x="-22" y="-28" width="44" height="42" rx="14" fill="#EDE5D3"></rect><rect x="-22" y="6" width="44" height="12" rx="3" fill="#151515"></rect><circle cx="6" cy="-12" r="4.5" fill="#EBC09C"></circle><circle cx="-8" cy="-2" r="3" fill="#EBC09C"></circle><path d="M-10,-28 v10 M0,-28 v10 M10,-28 v10" stroke="#cdc6b7" stroke-width="2"></path></g><g transform="translate(201.2,282) rotate(10)"><rect x="-22" y="-28" width="44" height="42" rx="14" fill="#EDE5D3"></rect><rect x="-22" y="6" width="44" height="12" rx="3" fill="#151515"></rect><circle cx="-6" cy="-12" r="4.5" fill="#EBC09C"></circle><circle cx="8" cy="-2" r="3" fill="#EBC09C"></circle><path d="M-10,-28 v10 M0,-28 v10 M10,-28 v10" stroke="#cdc6b7" stroke-width="2"></path></g></g></g></svg>