<svg xmlns="http://www.w3.org/2000/svg" viewBox="-12 -10 264 336" width="264" height="336" preserveAspectRatio="xMidYMax meet" style="display:block;overflow:visible" xmlns:c2pa="http://c2pa.org/manifest"><metadata><c2pa:manifest>AAAWgmp1bWIAAAAeanVtZGMycGEAEQAQgAAAqgA4m3EDYzJwYQAAABZcanVtYgAAAEdqdW1kYzJtYQARABCAAACqADibcQN1cm46YzJwYTphNTM0NTM4MS0wYzU1LTQyNmUtYjBlNC01NjU5ZGY3ZDgyNGIAAAADl2p1bWIAAAApanVtZGMyYXMAEQAQgAAAqgA4m3EDYzJwYS5hc3NlcnRpb25zAAAAALxqdW1iAAAARGp1bWRjYm9yABEAEIAAAKoAOJtxE2MycGEuaW5ncmVkaWVudC52MwAAAAAYYzJzaOxZE3J4Bdzwm+OKdGoK6csAAABwY2JvcqNpZGM6Zm9ybWF0bWltYWdlL3N2Zyt4bWxqaW5zdGFuY2VJRHgseG1wOmlpZDpiY2JlOWNkNy04ZjY2LTRiYTUtOWE1Zi03NjRjNmM3MjNjZWJscmVsYXRpb25zaGlwaHBhcmVudE9mAAAB4mp1bWIAAABBanVtZGNib3IAEQAQgAAAqgA4m3ETYzJwYS5hY3Rpb25zLnYyAAAAABhjMnNoSlk3iBL7RdeG6Bck4sqCCwAAAZljYm9yomdhY3Rpb25zgqJmYWN0aW9ua2MycGEub3BlbmVkanBhcmFtZXRlcnOha2luZ3JlZGllbnRzgaJjdXJseC1zZWxmI2p1bWJmPWMycGEuYXNzZXJ0aW9ucy9jMnBhLmluZ3JlZGllbnQudjNkaGFzaFggmNsH36awAuHO6BooFhsyaaMdjFztwKG6h/AYQkbefm2kZmFjdGlvbngdY29tLmFudGhyb3BpYy5jbGF1ZGUucHJvdmlkZWRqcGFyYW1ldGVyc6F4H2NvbS5hbnRocm9waWMub3JpZ2luLWNvbmZpZGVuY2VndW5rbm93bmtkZXNjcmlwdGlvbnhmQ2xhdWRlIHByb3ZpZGVkIHRoaXMgZmlsZSBhdCB0aGUgcmVxdWVzdCBvZiBhIHVzZXIgYW5kIG1heSBoYXZlIGNyZWF0ZWQgb3IgbW9kaWZpZWQgdGhlIGZpbGUgY29udGVudHMubXNvZnR3YXJlQWdlbnShZG5hbWVmQ2xhdWRlcmFsbEFjdGlvbnNJbmNsdWRlZPUAAADIanVtYgAAAEBqdW1kY2JvcgARABCAAACqADibcRNjMnBhLmhhc2guZGF0YQAAAAAYYzJzaORxj/YAutqjLlimBTY/Mf0AAACAY2JvcqVjYWxnZnNoYTI1NmNwYWRNAAAAAAAAAAAAAAAAAGRoYXNoWCBbwJgrG5bjiInpEABGAlBnLmQkRIO1TO3lNAXoeqdOaWRuYW1lbmp1bWJmIG1hbmlmZXN0amV4Y2x1c2lvbnOBomVzdGFydBjlZmxlbmd0aBkeBAAAAj5qdW1iAAAAJ2p1bWRjMmNsABEAEIAAAKoAOJtxA2MycGEuY2xhaW0udjIAAAACD2Nib3KlY2FsZ2ZzaGEyNTZpc2lnbmF0dXJleE1zZWxmI2p1bWJmPS9jMnBhL3VybjpjMnBhOmE1MzQ1MzgxLTBjNTUtNDI2ZS1iMGU0LTU2NTlkZjdkODI0Yi9jMnBhLnNpZ25hdHVyZWppbnN0YW5jZUlEeCx4bXA6aWlkOjg1NjcyYzkwLWRiZTUtNGM5Zi1iOTJkLWE3ZjY1YWMzYWRjZXJjcmVhdGVkX2Fzc2VydGlvbnODomN1cmx4LXNlbGYjanVtYmY9YzJwYS5hc3NlcnRpb25zL2MycGEuaW5ncmVkaWVudC52M2RoYXNoWCCY2wffprAC4c7oGigWGzJpox2MXO3AobqH8BhCRt5+baJjdXJseCpzZWxmI2p1bWJmPWMycGEuYXNzZXJ0aW9ucy9jMnBhLmFjdGlvbnMudjJkaGFzaFggGALITler9we1GBqtUv4UrIyjrDlHKWYUZIQbqMwaMtOiY3VybHgpc2VsZiNqdW1iZj1jMnBhLmFzc2VydGlvbnMvYzJwYS5oYXNoLmRhdGFkaGFzaFggX4u+8VWKpWRT8zgNIa9vxxVcxx7yuLQErLx6fLP4cOx0Y2xhaW1fZ2VuZXJhdG9yX2luZm+jZG5hbWVvQW50aHJvcGljIEZpbGVzZ3ZlcnNpb25lMS4wLjBrc3BlY1ZlcnNpb25lMi40LjAAABA4anVtYgAAAChqdW1kYzJjcwARABCAAACqADibcQNjMnBhLnNpZ25hdHVyZQAAABAIY2JvctKEWQISogEmGCFZAgowggIGMIIBjaADAgECAhRA5aAK7sI50L64g/oGQgU9Z1UTADAKBggqhkjOPQQDAzBJMRcwFQYDVQQKEw5BbnRocm9waWMsIFBCQzEuMCwGA1UEAxMlQW50aHJvcGljIENvbnRlbnQgQ3JlZGVudGlhbHMgUm9vdCBDQTAeFw0yNjA4MDcxODQzNTZaFw0yODA4MDYxOTQzNTZaMEQxFzAVBgNVBAoTDkFudGhyb3BpYywgUEJDMSkwJwYDVQQDEyBBbnRocm9waWMgQ2xhdWRlIENvbnRlbnQgU2lnbmluZzBZMBMGByqGSM49AgEGCCqGSM49AwEHA0IABJh6CmvLUBgFFNU0vUKlOVtE6djd17L5SuwX0LemFisBM3dkd/3cyjxFA3Qo5S46fX0/ihY0VZ7mfb9KF703t5OjWDBWMA4GA1UdDwEB/wQEAwIHgDAVBgNVHSUEDjAMBgorBgEEAYPoXgIBMAwGA1UdEwEB/wQCMAAwHwYDVR0jBBgwFoAUzlHiBIFOZFsj+OPEz5o+nMHXXMIwCgYIKoZIzj0EAwMDZwAwZAIwMXMdFJ4BetLLVY7ORuE9noqbbAZOZn/aArXyTwFAZfKrPzxF2vPoJNf1+UCdg1XGAjBwX1zd9WGqYkqmL5SFqw1QySjr1zJfpJM9+1rdDwSPLMOPOjKuiXjoU/pUUeG9RwmhY3BhZFkNngAAAAAAAAAAAAAAAAAAAAAAAAAAAAAAAAAAAAAAAAAAAAAAAAAAAAAAAAAAAAAAAAAAAAAAAAAAAAAAAAAAAAAAAAAAAAAAAAAAAAAAAAAAAAAAAAAAAAAAAAAAAAAAAAAAAAAAAAAAAAAAAAAAAAAAAAAAAAAAAAAAAAAAAAAAAAAAAAAAAAAAAAAAAAAAAAAAAAAAAAAAAAAAAAAAAAAAAAAAAAAAAAAAAAAAAAAAAAAAAAAAAAAAAAAAAAAAAAAAAAAAAAAAAAAAAAAAAAAAAAAAAAAAAAAAAAAAAAAAAAAAAAAAAAAAAAAAAAAAAAAAAAAAAAAAAAAAAAAAAAAAAAAAAAAAAAAAAAAAAAAAAAAAAAAAAAAAAAAAAAAAAAAAAAAAAAAAAAAAAAAAAAAAAAAAAAAAAAAAAAAAAAAAAAAAAAAAAAAAAAAAAAAAAAAAAAAAAAAAAAAAAAAAAAAAAAAAAAAAAAAAAAAAAAAAAAAAAAAAAAAAAAAAAAAAAAAAAAAAAAAAAAAAAAAAAAAAAAAAAAAAAAAAAAAAAAAAAAAAAAAAAAAAAAAAAAAAAAAAAAAAAAAAAAAAAAAAAAAAAAAAAAAAAAAAAAAAAAAAAAAAAAAAAAAAAAAAAAAAAAAAAAAAAAAAAAAAAAAAAAAAAAAAAAAAAAAAAAAAAAAAAAAAAAAAAAAAAAAAAAAAAAAAAAAAAAAAAAAAAAAAAAAAAAAAAAAAAAAAAAAAAAAAAAAAAAAAAAAAAAAAAAAAAAAAAAAAAAAAAAAAAAAAAAAAAAAAAAAAAAAAAAAAAAAAAAAAAAAAAAAAAAAAAAAAAAAAAAAAAAAAAAAAAAAAAAAAAAAAAAAAAAAAAAAAAAAAAAAAAAAAAAAAAAAAAAAAAAAAAAAAAAAAAAAAAAAAAAAAAAAAAAAAAAAAAAAAAAAAAAAAAAAAAAAAAAAAAAAAAAAAAAAAAAAAAAAAAAAAAAAAAAAAAAAAAAAAAAAAAAAAAAAAAAAAAAAAAAAAAAAAAAAAAAAAAAAAAAAAAAAAAAAAAAAAAAAAAAAAAAAAAAAAAAAAAAAAAAAAAAAAAAAAAAAAAAAAAAAAAAAAAAAAAAAAAAAAAAAAAAAAAAAAAAAAAAAAAAAAAAAAAAAAAAAAAAAAAAAAAAAAAAAAAAAAAAAAAAAAAAAAAAAAAAAAAAAAAAAAAAAAAAAAAAAAAAAAAAAAAAAAAAAAAAAAAAAAAAAAAAAAAAAAAAAAAAAAAAAAAAAAAAAAAAAAAAAAAAAAAAAAAAAAAAAAAAAAAAAAAAAAAAAAAAAAAAAAAAAAAAAAAAAAAAAAAAAAAAAAAAAAAAAAAAAAAAAAAAAAAAAAAAAAAAAAAAAAAAAAAAAAAAAAAAAAAAAAAAAAAAAAAAAAAAAAAAAAAAAAAAAAAAAAAAAAAAAAAAAAAAAAAAAAAAAAAAAAAAAAAAAAAAAAAAAAAAAAAAAAAAAAAAAAAAAAAAAAAAAAAAAAAAAAAAAAAAAAAAAAAAAAAAAAAAAAAAAAAAAAAAAAAAAAAAAAAAAAAAAAAAAAAAAAAAAAAAAAAAAAAAAAAAAAAAAAAAAAAAAAAAAAAAAAAAAAAAAAAAAAAAAAAAAAAAAAAAAAAAAAAAAAAAAAAAAAAAAAAAAAAAAAAAAAAAAAAAAAAAAAAAAAAAAAAAAAAAAAAAAAAAAAAAAAAAAAAAAAAAAAAAAAAAAAAAAAAAAAAAAAAAAAAAAAAAAAAAAAAAAAAAAAAAAAAAAAAAAAAAAAAAAAAAAAAAAAAAAAAAAAAAAAAAAAAAAAAAAAAAAAAAAAAAAAAAAAAAAAAAAAAAAAAAAAAAAAAAAAAAAAAAAAAAAAAAAAAAAAAAAAAAAAAAAAAAAAAAAAAAAAAAAAAAAAAAAAAAAAAAAAAAAAAAAAAAAAAAAAAAAAAAAAAAAAAAAAAAAAAAAAAAAAAAAAAAAAAAAAAAAAAAAAAAAAAAAAAAAAAAAAAAAAAAAAAAAAAAAAAAAAAAAAAAAAAAAAAAAAAAAAAAAAAAAAAAAAAAAAAAAAAAAAAAAAAAAAAAAAAAAAAAAAAAAAAAAAAAAAAAAAAAAAAAAAAAAAAAAAAAAAAAAAAAAAAAAAAAAAAAAAAAAAAAAAAAAAAAAAAAAAAAAAAAAAAAAAAAAAAAAAAAAAAAAAAAAAAAAAAAAAAAAAAAAAAAAAAAAAAAAAAAAAAAAAAAAAAAAAAAAAAAAAAAAAAAAAAAAAAAAAAAAAAAAAAAAAAAAAAAAAAAAAAAAAAAAAAAAAAAAAAAAAAAAAAAAAAAAAAAAAAAAAAAAAAAAAAAAAAAAAAAAAAAAAAAAAAAAAAAAAAAAAAAAAAAAAAAAAAAAAAAAAAAAAAAAAAAAAAAAAAAAAAAAAAAAAAAAAAAAAAAAAAAAAAAAAAAAAAAAAAAAAAAAAAAAAAAAAAAAAAAAAAAAAAAAAAAAAAAAAAAAAAAAAAAAAAAAAAAAAAAAAAAAAAAAAAAAAAAAAAAAAAAAAAAAAAAAAAAAAAAAAAAAAAAAAAAAAAAAAAAAAAAAAAAAAAAAAAAAAAAAAAAAAAAAAAAAAAAAAAAAAAAAAAAAAAAAAAAAAAAAAAAAAAAAAAAAAAAAAAAAAAAAAAAAAAAAAAAAAAAAAAAAAAAAAAAAAAAAAAAAAAAAAAAAAAAAAAAAAAAAAAAAAAAAAAAAAAAAAAAAAAAAAAAAAAAAAAAAAAAAAAAAAAAAAAAAAAAAAAAAAAAAAAAAAAAAAAAAAAAAAAAAAAAAAAAAAAAAAAAAAAAAAAAAAAAAAAAAAAAAAAAAAAAAAAAAAAAAAAAAAAAAAAAAAAAAAAAAAAAAAAAAAAAAAAAAAAAAAAAAAAAAAAAAAAAAAAAAAAAAAAAAAAAAAAAAAAAAAAAAAAAAAAAAAAAAAAAAAAAAAAAAAAAAAAAAAAAAAAAAAAAAAAAAAAAAAAAAAAAAAAAAAAAAAAAAAAAAAAAAAAAAAAAAAAAAAAAAAAAAAAAAAAAAAAAAAAAAAAAAAAAAAAAAAAAAAAAAAAAAAAAAAAAAAAAAAAAAAAAAAAAAAAAAAAAAAAAAAAAAAAAAAAAAAAAAAAAAAAAAAAAAAAAAAAAAAAAAAAAAAAAAAAAAAAAAAAAAAAAAAAAAAAAAAAAAAAAAAAAAAAAAAAAAAAAAAAAAAAAAAAAAAAAAAAAAAAAAAAAAAAAAAAAAAAAAAAAAAAAAAAAAAAAAAAAAAAAAAAAAAAAAAAAAAAAAAAAAAAAAAAAAAAAAAAAAAAAAAAAAAAAAAAAAAAAAAAAAAAAAAAAAAAAAAAAAAAAAAAAAAAAAAAAAAAAAAAAAAAAAAAAAAAAAAAAAAAAAAAAAAAAAAAAAAAAAAAAAAAAAAAAAAAAAAAAAAAAAAAAAAAAAAAAAAAAAAAAAAAAAAAAAAAAAAAAAAAAAAAAAAAAAAAAAAAAAAAAAAAAAAAAAAAAAAAAAAAAAAAAAAAAAAAAAAAAAAAAAAAAAAAAAAAAAAAAAAAAAAAAAAAAAAAAAAAAAAAAAAAAAAAAAAAAAAAAAAAAAAAAAAAAAAAAAAAAAAAAAAAAAAAAAAAAAAAAAAAAAAAAAAAAAAAAAAAAAAAAAAAAAAAAAAAAAAAAAAAAAAAAAAAAAAAAAAAAAAAAAAAAAAAAAAAAAAAAAAAAAAAAAAAAAAAAAAAAAAAAAAAAAAAAAAAAAAAAAAAAAAAAAAAAAAAAAAAAAAAAAAAAAAAAAAAAAAAAAAAAAAAAAAAAAAAAAAAAAAAAAAAAAAAAAAAAAAAAAAAAAAAAAAAAAAAAAAAAAAAAAAAAAAAAAAAAAAAAAAAAAAAAAAAAAAAAAAAAAAAAAAAAAAAAAAAAAAAAAAAAAAAAAAAAAAAAAAAAAAAAAAAAAAAAAAAAAAAAAAAAAAAAAAAAAAAAAAAAAAAAAAAAAAAAAAAAAAAAAAAAAAAAAAAAAAAAAAAAAAAAAAAAAAAAAAAAAAAAAAAAAAAAAAAAAAAAAAAAAAAAAAAAAAAAAAAAAAAAAAAAAAAAAAAAAAAAAAAAAAAAAAAAAAAAAAAAAAAAAAAAAAAAAAAAAAAAAAAAAAAAAAAAAAAAAAAAAAAAAAAAAAAAAAAAAAAAAAAAAAAAAAAAAAAAAAAAAAAAAAAAAAAAAAAAAAAAAAAAAAAAAAAAAAAAAAAAAAAAAAAAAAAAAAAAAAAAAAAAAAAAAAAAAAAAAAAAAAAAAAAAAAAAAAAAAAAAAAAAAAAAAAAAAAAAAAAAAAAAAAAAAAAAAAAAAAAAAAAAAAAAAAAAAAAAAAAAAAAAAAAAAAAAAAAAAAAAAAAAAAAAAAAAAAAAAAAAAAAAAAAAAAAAAAAAAAAAAAAAAAAAAAAAAAAAAAAAAAAAAAAAAAAAAAAAAAAAAAAAAAAAAAAAAAAAAAAAAAAAAAAAAAAAAAAAAAAAAAAAAAAAAAAAAAAAAAAAAAAAAAAAAAAAAAAAAAAAAAAAAAAAAAAAAAAAAAAAAAAAAAAAAAAAAAAAAAAAAAAAAAAAAAAAAAAAAAAAAAAAAAAAAAAAAAAAAAAAAAAAAAAAAAAAAAAAAAAAAAAAAAAAAAAAAAAAAAAAAAAAAAAAAAAAAAAAAAAPZYQIXPvCXXPLuTihrhddTIAuyWJp0xG8HC24X1g4XAYaTXdZyh/xzZzjuchhVeKsOxhvG2yMVnY5KtuFDc4LNPt/A=</c2pa:manifest></metadata><defs><clipPath id="jeanmib"><path d="M96.5,165.4 C76.5,168.4 36,173.4 24,191.4 C20,215.4 7.6,236 7.6,262 C7.6,284 20,294 20,306 L40,306 L60,308.6 L80,304.7 L100,307.3 L120,303.4 L140,306 L160,308.6 L180,304.7 L200,307.3 L220,303.4 C220,294 232.4,284 232.4,262 C232.4,236 220,215.4 216,191.4 C204,173.4 163.5,168.4 143.5,165.4Z"></path></clipPath><clipPath id="jeanmih"><path d="M120,34 C156.96,34 176,58.2352 176,105.28 C176,145.3552 156.96,166 120,166 C83.03999999999999,166 64,145.3552 64,105.28 C64,58.2352 83.03999999999999,34 120,34Z"></path></clipPath><filter id="jeanmic" x="-12%" y="-10%" width="124%" height="120%" color-interpolation-filters="sRGB"><feMorphology in="SourceAlpha" operator="dilate" radius="5" result="d"></feMorphology><feTurbulence type="fractalNoise" baseFrequency="0.045" numOctaves="2" seed="23" result="n"></feTurbulence><feDisplacementMap in="d" in2="n" scale="9" xChannelSelector="R" yChannelSelector="G" result="dd"></feDisplacementMap><feFlood flood-color="#FFFFFF" result="w"></feFlood><feComposite in="w" in2="dd" operator="in" result="wb"></feComposite><feOffset in="dd" dx="4" dy="5" result="so"></feOffset><feFlood flood-color="#151515" flood-opacity=".3"></feFlood><feComposite in2="so" operator="in" result="shd"></feComposite><feTurbulence type="fractalNoise" baseFrequency=".85" numOctaves="2" seed="30" result="g"></feTurbulence><feColorMatrix in="g" type="matrix" values="0 0 0 0 0.08  0 0 0 0 0.08  0 0 0 0 0.08  0.55 0 0 0 -0.24" result="ga"></feColorMatrix><feComposite in="ga" in2="SourceAlpha" operator="in" result="gr"></feComposite><feMerge><feMergeNode in="shd"></feMergeNode><feMergeNode in="wb"></feMergeNode><feMergeNode in="SourceGraphic"></feMergeNode><feMergeNode in="gr"></feMergeNode></feMerge></filter></defs><g filter="url(#jeanmic)"><g id="cheveux_arriere" data-calque="cheveux_arriere"></g><g id="corps" data-calque="corps"><rect x="96.48" y="126.4" width="47.04" height="55" fill="#E0AE88"></rect><path d="M96.5,165.4 C76.5,168.4 36,173.4 24,191.4 C20,215.4 7.6,236 7.6,262 C7.6,284 20,294 20,306 L40,306 L60,308.6 L80,304.7 L100,307.3 L120,303.4 L140,306 L160,308.6 L180,304.7 L200,307.3 L220,303.4 C220,294 232.4,284 232.4,262 C232.4,236 220,215.4 216,191.4 C204,173.4 163.5,168.4 143.5,165.4Z" fill="#E0AE88"></path></g><g id="maillot" data-calque="maillot"><g clip-path="url(#jeanmib)"><path d="M96.5,165.4 C76.5,168.4 36,173.4 24,191.4 C21,199.4 20,209.4 20,219.4 L38,223.4 C38,245.4 23.6,238 23.6,262 C23.6,284 36,294 36,306 L52.8,306 L69.6,308.6 L86.4,304.7 L103.2,307.3 L120,303.4 L136.8,306 L153.6,308.6 L170.4,304.7 L187.2,307.3 L204,303.4 C204,294 216.4,284 216.4,262 C216.4,238 202,245.4 202,223.4 L220,219.4 C220,209.4 219,199.4 216,191.4 C204,173.4 163.5,168.4 143.5,165.4Z" fill="#2446B0"></path><path d="M20,219.4 L38,223.4 M220,219.4 L202,223.4" stroke="#FFFFFF" stroke-width="4"></path><path d="M95,162.4 L120,193.4 L145,162.4Z" fill="#FFFFFF"></path><path d="M103,162.4 L120,183.4 L137,162.4Z" fill="#E0AE88"></path><path d="M154,199.4 h17 v11 q0,9 -8.5,12 q-8.5,-3 -8.5,-12Z" fill="#FFFFFF"></path><path d="M160,201.4 v19" stroke="#2446B0" stroke-width="4"></path></g></g><g id="ombres" data-calque="ombres"><g transform="translate(1.5 1)"><g clip-path="url(#jeanmib)" fill="#151515" opacity=".2"><ellipse cx="120" cy="167.4" rx="34.72" ry="14"></ellipse><path d="M169,165.4 C218,175.4 242.4,250 220,316 L175,316 C198.68,250 178.8,195.4 169,165.4Z"></path><path d="M41.32000000000001,282 Q120,300 198.68,282 L198.68,292 Q120,312 41.32000000000001,292Z"></path></g></g></g><g id="tete" data-calque="tete"><ellipse cx="65.68" cy="103.96" rx="8.58" ry="11.22" fill="#E0AE88"></ellipse><ellipse cx="174.32" cy="103.96" rx="8.58" ry="11.22" fill="#E0AE88"></ellipse><ellipse cx="65.68" cy="103.96" rx="4.29" ry="5.9399999999999995" fill="#bb9273"></ellipse><ellipse cx="174.32" cy="103.96" rx="4.29" ry="5.9399999999999995" fill="#bb9273"></ellipse><path d="M120,34 C156.96,34 176,58.2352 176,105.28 C176,145.3552 156.96,166 120,166 C83.03999999999999,166 64,145.3552 64,105.28 C64,58.2352 83.03999999999999,34 120,34Z" fill="#E0AE88"></path><g clip-path="url(#jeanmih)"><ellipse cx="178.8" cy="106.6" rx="25.2" ry="79.2" fill="#151515" opacity=".13"></ellipse><path d="M66.80000000000001,113.2 C69.6,169.3 170.4,169.3 173.2,113.2 C153.6,133 86.4,133 66.80000000000001,113.2Z" fill="#8E877A" opacity="0.28"></path></g></g><g id="cheveux" data-calque="cheveux"><path d="M64,93.4 C61.2,9.8 178.8,9.8 176,93.4 C169.3,67 148,59.1 120,59.1 C92,59.1 70.7,67 64,93.4Z" fill="#B9B2A4"></path><circle cx="89.2" cy="60.4" r="7.3" fill="#B9B2A4"></circle><circle cx="108.8" cy="60.4" r="7.3" fill="#B9B2A4"></circle><circle cx="128.4" cy="60.4" r="7.3" fill="#B9B2A4"></circle><circle cx="148" cy="60.4" r="7.3" fill="#B9B2A4"></circle></g><g id="yeux" data-calque="yeux"><path d="M92.22,99 Q98.72,108 105.22,99Z" fill="#151515"></path><path d="M90.72,98.5 L106.72,98.5" stroke="#151515" stroke-width="3" stroke-linecap="round"></path><path d="M134.78,99 Q141.28,108 147.78,99Z" fill="#151515"></path><path d="M133.28,98.5 L149.28,98.5" stroke="#151515" stroke-width="3" stroke-linecap="round"></path></g><g id="sourcils" data-calque="sourcils"><rect x="89.72" y="73.5" width="18" height="7" rx="3.5" fill="#7E776A" transform="rotate(10 98.72 77)"></rect><rect x="132.28" y="80.5" width="18" height="7" rx="3.5" fill="#7E776A" transform="rotate(-4 141.28 84)"></rect></g><g id="nez" data-calque="nez"><ellipse cx="123" cy="119.8" rx="12.32" ry="9.9" fill="#c49978"></ellipse><ellipse cx="128.04" cy="121.8" rx="5.6000000000000005" ry="5.9399999999999995" fill="#151515" opacity=".1"></ellipse></g><g id="bouche" data-calque="bouche"><path d="M106.14,139.28 Q121.54,145.28 135.4,131.28" fill="none" stroke="#151515" stroke-width="3.6" stroke-linecap="round"></path><path d="M137.248,128.28 l2,4" fill="none" stroke="#151515" stroke-width="2.4" stroke-linecap="round"></path></g><g id="moustache" data-calque="moustache"></g><g id="accessoires" data-calque="accessoires"><path d="M63.44,72.28 Q120,56.44 176.56,72.28 L176,85.48 Q120,69.64 64,85.48Z" fill="#FFFFFF"></path><path d="M69.6,80.2 Q120,65.68 170.4,80.2" fill="none" stroke="#D8D2C4" stroke-width="2" stroke-dasharray="3 3"></path><rect x="201" y="225.4" width="20" height="12" fill="#F2C94C" transform="rotate(6 211 231.4)"></rect></g></g></svg>