<svg xmlns="http://www.w3.org/2000/svg" viewBox="-12 -10 264 336" width="264" height="336" preserveAspectRatio="xMidYMax meet" style="display:block;overflow:visible" xmlns:c2pa="http://c2pa.org/manifest"><metadata><c2pa:manifest>AAAWgmp1bWIAAAAeanVtZGMycGEAEQAQgAAAqgA4m3EDYzJwYQAAABZcanVtYgAAAEdqdW1kYzJtYQARABCAAACqADibcQN1cm46YzJwYTpiYjhlMDMzMi00MTY3LTQ3YTktYTA2Mi1mODE0ZDczYTJlZTcAAAADl2p1bWIAAAApanVtZGMyYXMAEQAQgAAAqgA4m3EDYzJwYS5hc3NlcnRpb25zAAAAALxqdW1iAAAARGp1bWRjYm9yABEAEIAAAKoAOJtxE2MycGEuaW5ncmVkaWVudC52MwAAAAAYYzJzaHjC5piUrEQBqvHJiVBhE0sAAABwY2JvcqNpZGM6Zm9ybWF0bWltYWdlL3N2Zyt4bWxqaW5zdGFuY2VJRHgseG1wOmlpZDpiYTlhZThjZi0wN2MyLTQxNTQtODliNS0xYTBlNmNiMWEwZTBscmVsYXRpb25zaGlwaHBhcmVudE9mAAAB4mp1bWIAAABBanVtZGNib3IAEQAQgAAAqgA4m3ETYzJwYS5hY3Rpb25zLnYyAAAAABhjMnNo06G04B4wdaSD+h0l9ProyQAAAZljYm9yomdhY3Rpb25zgqJmYWN0aW9ua2MycGEub3BlbmVkanBhcmFtZXRlcnOha2luZ3JlZGllbnRzgaJjdXJseC1zZWxmI2p1bWJmPWMycGEuYXNzZXJ0aW9ucy9jMnBhLmluZ3JlZGllbnQudjNkaGFzaFgguzmnuTP9GjJZ7c5baDOm9RNTZAX8pLM0EYtOBX8eYwykZmFjdGlvbngdY29tLmFudGhyb3BpYy5jbGF1ZGUucHJvdmlkZWRqcGFyYW1ldGVyc6F4H2NvbS5hbnRocm9waWMub3JpZ2luLWNvbmZpZGVuY2VndW5rbm93bmtkZXNjcmlwdGlvbnhmQ2xhdWRlIHByb3ZpZGVkIHRoaXMgZmlsZSBhdCB0aGUgcmVxdWVzdCBvZiBhIHVzZXIgYW5kIG1heSBoYXZlIGNyZWF0ZWQgb3IgbW9kaWZpZWQgdGhlIGZpbGUgY29udGVudHMubXNvZnR3YXJlQWdlbnShZG5hbWVmQ2xhdWRlcmFsbEFjdGlvbnNJbmNsdWRlZPUAAADIanVtYgAAAEBqdW1kY2JvcgARABCAAACqADibcRNjMnBhLmhhc2guZGF0YQAAAAAYYzJzaDrdyfP0I5Fld5rEFOlu588AAACAY2JvcqVjYWxnZnNoYTI1NmNwYWRNAAAAAAAAAAAAAAAAAGRoYXNoWCDVDYxkWW14JWQwt720gXFJ+jqTrPhFexxESvLf/2pTjGRuYW1lbmp1bWJmIG1hbmlmZXN0amV4Y2x1c2lvbnOBomVzdGFydBjlZmxlbmd0aBkeBAAAAj5qdW1iAAAAJ2p1bWRjMmNsABEAEIAAAKoAOJtxA2MycGEuY2xhaW0udjIAAAACD2Nib3KlY2FsZ2ZzaGEyNTZpc2lnbmF0dXJleE1zZWxmI2p1bWJmPS9jMnBhL3VybjpjMnBhOmJiOGUwMzMyLTQxNjctNDdhOS1hMDYyLWY4MTRkNzNhMmVlNy9jMnBhLnNpZ25hdHVyZWppbnN0YW5jZUlEeCx4bXA6aWlkOmI3MGU0YzA1LWE5YjQtNDg1Yi1iNjM0LTQ0MGM1MTgzZjczYnJjcmVhdGVkX2Fzc2VydGlvbnODomN1cmx4LXNlbGYjanVtYmY9YzJwYS5hc3NlcnRpb25zL2MycGEuaW5ncmVkaWVudC52M2RoYXNoWCC7Oae5M/0aMlntzltoM6b1E1NkBfykszQRi04Ffx5jDKJjdXJseCpzZWxmI2p1bWJmPWMycGEuYXNzZXJ0aW9ucy9jMnBhLmFjdGlvbnMudjJkaGFzaFggnmppnjrfzzkhnI/erQ0T52UW9W28xpUcVEFK/XwSIPSiY3VybHgpc2VsZiNqdW1iZj1jMnBhLmFzc2VydGlvbnMvYzJwYS5oYXNoLmRhdGFkaGFzaFggq90RgXJR/KO2dVe/Y1b9+X8P1UbrpevghpN1rX+2wth0Y2xhaW1fZ2VuZXJhdG9yX2luZm+jZG5hbWVvQW50aHJvcGljIEZpbGVzZ3ZlcnNpb25lMS4wLjBrc3BlY1ZlcnNpb25lMi40LjAAABA4anVtYgAAAChqdW1kYzJjcwARABCAAACqADibcQNjMnBhLnNpZ25hdHVyZQAAABAIY2JvctKEWQISogEmGCFZAgowggIGMIIBjaADAgECAhRA5aAK7sI50L64g/oGQgU9Z1UTADAKBggqhkjOPQQDAzBJMRcwFQYDVQQKEw5BbnRocm9waWMsIFBCQzEuMCwGA1UEAxMlQW50aHJvcGljIENvbnRlbnQgQ3JlZGVudGlhbHMgUm9vdCBDQTAeFw0yNjA4MDcxODQzNTZaFw0yODA4MDYxOTQzNTZaMEQxFzAVBgNVBAoTDkFudGhyb3BpYywgUEJDMSkwJwYDVQQDEyBBbnRocm9waWMgQ2xhdWRlIENvbnRlbnQgU2lnbmluZzBZMBMGByqGSM49AgEGCCqGSM49AwEHA0IABJh6CmvLUBgFFNU0vUKlOVtE6djd17L5SuwX0LemFisBM3dkd/3cyjxFA3Qo5S46fX0/ihY0VZ7mfb9KF703t5OjWDBWMA4GA1UdDwEB/wQEAwIHgDAVBgNVHSUEDjAMBgorBgEEAYPoXgIBMAwGA1UdEwEB/wQCMAAwHwYDVR0jBBgwFoAUzlHiBIFOZFsj+OPEz5o+nMHXXMIwCgYIKoZIzj0EAwMDZwAwZAIwMXMdFJ4BetLLVY7ORuE9noqbbAZOZn/aArXyTwFAZfKrPzxF2vPoJNf1+UCdg1XGAjBwX1zd9WGqYkqmL5SFqw1QySjr1zJfpJM9+1rdDwSPLMOPOjKuiXjoU/pUUeG9RwmhY3BhZFkNngAAAAAAAAAAAAAAAAAAAAAAAAAAAAAAAAAAAAAAAAAAAAAAAAAAAAAAAAAAAAAAAAAAAAAAAAAAAAAAAAAAAAAAAAAAAAAAAAAAAAAAAAAAAAAAAAAAAAAAAAAAAAAAAAAAAAAAAAAAAAAAAAAAAAAAAAAAAAAAAAAAAAAAAAAAAAAAAAAAAAAAAAAAAAAAAAAAAAAAAAAAAAAAAAAAAAAAAAAAAAAAAAAAAAAAAAAAAAAAAAAAAAAAAAAAAAAAAAAAAAAAAAAAAAAAAAAAAAAAAAAAAAAAAAAAAAAAAAAAAAAAAAAAAAAAAAAAAAAAAAAAAAAAAAAAAAAAAAAAAAAAAAAAAAAAAAAAAAAAAAAAAAAAAAAAAAAAAAAAAAAAAAAAAAAAAAAAAAAAAAAAAAAAAAAAAAAAAAAAAAAAAAAAAAAAAAAAAAAAAAAAAAAAAAAAAAAAAAAAAAAAAAAAAAAAAAAAAAAAAAAAAAAAAAAAAAAAAAAAAAAAAAAAAAAAAAAAAAAAAAAAAAAAAAAAAAAAAAAAAAAAAAAAAAAAAAAAAAAAAAAAAAAAAAAAAAAAAAAAAAAAAAAAAAAAAAAAAAAAAAAAAAAAAAAAAAAAAAAAAAAAAAAAAAAAAAAAAAAAAAAAAAAAAAAAAAAAAAAAAAAAAAAAAAAAAAAAAAAAAAAAAAAAAAAAAAAAAAAAAAAAAAAAAAAAAAAAAAAAAAAAAAAAAAAAAAAAAAAAAAAAAAAAAAAAAAAAAAAAAAAAAAAAAAAAAAAAAAAAAAAAAAAAAAAAAAAAAAAAAAAAAAAAAAAAAAAAAAAAAAAAAAAAAAAAAAAAAAAAAAAAAAAAAAAAAAAAAAAAAAAAAAAAAAAAAAAAAAAAAAAAAAAAAAAAAAAAAAAAAAAAAAAAAAAAAAAAAAAAAAAAAAAAAAAAAAAAAAAAAAAAAAAAAAAAAAAAAAAAAAAAAAAAAAAAAAAAAAAAAAAAAAAAAAAAAAAAAAAAAAAAAAAAAAAAAAAAAAAAAAAAAAAAAAAAAAAAAAAAAAAAAAAAAAAAAAAAAAAAAAAAAAAAAAAAAAAAAAAAAAAAAAAAAAAAAAAAAAAAAAAAAAAAAAAAAAAAAAAAAAAAAAAAAAAAAAAAAAAAAAAAAAAAAAAAAAAAAAAAAAAAAAAAAAAAAAAAAAAAAAAAAAAAAAAAAAAAAAAAAAAAAAAAAAAAAAAAAAAAAAAAAAAAAAAAAAAAAAAAAAAAAAAAAAAAAAAAAAAAAAAAAAAAAAAAAAAAAAAAAAAAAAAAAAAAAAAAAAAAAAAAAAAAAAAAAAAAAAAAAAAAAAAAAAAAAAAAAAAAAAAAAAAAAAAAAAAAAAAAAAAAAAAAAAAAAAAAAAAAAAAAAAAAAAAAAAAAAAAAAAAAAAAAAAAAAAAAAAAAAAAAAAAAAAAAAAAAAAAAAAAAAAAAAAAAAAAAAAAAAAAAAAAAAAAAAAAAAAAAAAAAAAAAAAAAAAAAAAAAAAAAAAAAAAAAAAAAAAAAAAAAAAAAAAAAAAAAAAAAAAAAAAAAAAAAAAAAAAAAAAAAAAAAAAAAAAAAAAAAAAAAAAAAAAAAAAAAAAAAAAAAAAAAAAAAAAAAAAAAAAAAAAAAAAAAAAAAAAAAAAAAAAAAAAAAAAAAAAAAAAAAAAAAAAAAAAAAAAAAAAAAAAAAAAAAAAAAAAAAAAAAAAAAAAAAAAAAAAAAAAAAAAAAAAAAAAAAAAAAAAAAAAAAAAAAAAAAAAAAAAAAAAAAAAAAAAAAAAAAAAAAAAAAAAAAAAAAAAAAAAAAAAAAAAAAAAAAAAAAAAAAAAAAAAAAAAAAAAAAAAAAAAAAAAAAAAAAAAAAAAAAAAAAAAAAAAAAAAAAAAAAAAAAAAAAAAAAAAAAAAAAAAAAAAAAAAAAAAAAAAAAAAAAAAAAAAAAAAAAAAAAAAAAAAAAAAAAAAAAAAAAAAAAAAAAAAAAAAAAAAAAAAAAAAAAAAAAAAAAAAAAAAAAAAAAAAAAAAAAAAAAAAAAAAAAAAAAAAAAAAAAAAAAAAAAAAAAAAAAAAAAAAAAAAAAAAAAAAAAAAAAAAAAAAAAAAAAAAAAAAAAAAAAAAAAAAAAAAAAAAAAAAAAAAAAAAAAAAAAAAAAAAAAAAAAAAAAAAAAAAAAAAAAAAAAAAAAAAAAAAAAAAAAAAAAAAAAAAAAAAAAAAAAAAAAAAAAAAAAAAAAAAAAAAAAAAAAAAAAAAAAAAAAAAAAAAAAAAAAAAAAAAAAAAAAAAAAAAAAAAAAAAAAAAAAAAAAAAAAAAAAAAAAAAAAAAAAAAAAAAAAAAAAAAAAAAAAAAAAAAAAAAAAAAAAAAAAAAAAAAAAAAAAAAAAAAAAAAAAAAAAAAAAAAAAAAAAAAAAAAAAAAAAAAAAAAAAAAAAAAAAAAAAAAAAAAAAAAAAAAAAAAAAAAAAAAAAAAAAAAAAAAAAAAAAAAAAAAAAAAAAAAAAAAAAAAAAAAAAAAAAAAAAAAAAAAAAAAAAAAAAAAAAAAAAAAAAAAAAAAAAAAAAAAAAAAAAAAAAAAAAAAAAAAAAAAAAAAAAAAAAAAAAAAAAAAAAAAAAAAAAAAAAAAAAAAAAAAAAAAAAAAAAAAAAAAAAAAAAAAAAAAAAAAAAAAAAAAAAAAAAAAAAAAAAAAAAAAAAAAAAAAAAAAAAAAAAAAAAAAAAAAAAAAAAAAAAAAAAAAAAAAAAAAAAAAAAAAAAAAAAAAAAAAAAAAAAAAAAAAAAAAAAAAAAAAAAAAAAAAAAAAAAAAAAAAAAAAAAAAAAAAAAAAAAAAAAAAAAAAAAAAAAAAAAAAAAAAAAAAAAAAAAAAAAAAAAAAAAAAAAAAAAAAAAAAAAAAAAAAAAAAAAAAAAAAAAAAAAAAAAAAAAAAAAAAAAAAAAAAAAAAAAAAAAAAAAAAAAAAAAAAAAAAAAAAAAAAAAAAAAAAAAAAAAAAAAAAAAAAAAAAAAAAAAAAAAAAAAAAAAAAAAAAAAAAAAAAAAAAAAAAAAAAAAAAAAAAAAAAAAAAAAAAAAAAAAAAAAAAAAAAAAAAAAAAAAAAAAAAAAAAAAAAAAAAAAAAAAAAAAAAAAAAAAAAAAAAAAAAAAAAAAAAAAAAAAAAAAAAAAAAAAAAAAAAAAAAAAAAAAAAAAAAAAAAAAAAAAAAAAAAAAAAAAAAAAAAAAAAAAAAAAAAAAAAAAAAAAAAAAAAAAAAAAAAAAAAAAAAAAAAAAAAAAAAAAAAAAAAAAAAAAAAAAAAAAAAAAAAAAAAAAAAAAAAAAAAAAAAAAAAAAAAAAAAAAAAAAAAAAAAAAAAAAAAAAAAAAAAAAAAAAAAAAAAAAAAAAAAAAAAAAAAAAAAAAAAAAAAAAAAAAAAAAAAAAAAAAAAAAAAAAAAAAAAAAAAAAAAAAAAAAAAAAAAAAAAAAAAAAAAAAAAAAAAAAAAAAAAAAAAAAAAAAAAAAAAAAAAAAAAAAAAAAAAAAAAAAAAAAAAAAAAAAAAAAAAAAAAAAAAAAAAAAAAAAAAAAAAAAAAAAAAAAAAAAAAAAAAAAAAAAAAAAAAAAAAAAAAAAAAAAAAAAAAAAAAAAAAAAAAAAAAAAAAAAAAAAAAAAAAAAAAAAAAAAAAAAAAAAAAAAAAAAAAAAAAAAAAAAAAAAAAAAAAAAAAAAAAAAAAAAAAAAAAAAAAAAAAAAAAAAAAAAAAAAAAAAAAAAAAAAAAAAAAAAAAAAAAAAAAAAAAAAAAAAAAAAAAAAAAAAAAAAAAAAAAAAAAAAAAAAAAAAAAAAAAAAAAAAAAAAAAAAAAAAAAAAAAAAAAAAAAAAAAAAAAAAAAAAAAAAAAAAAAAAAAAAAAAAAAAAAAAAAAAAAAAAAAAAAAAAAAAAAAAAAAAAAAAAAAAAAAAAAAAAAAAAAAAAAAAAAAAAAAAAAAAAAAAAAAAAAAAAAAAAAAAAAAAAAAAAAAAAAAAAAAAAAAAAAAAAAAAAAAAAAAAAAAAAAAAAAAAAAAAAAAAAAAAAAAAAAAAAAAAAAAAAAAAAAAAAAAAAAAAAAAAAAAAAAAAAAAAAAAAAAAAAAAAAAAAAAAAAAAAAAAAAAAAAAAAAAAAAAAAAAAAAAAAAAAAAAAAAAAAAAAAAAAAAAAAAAAAAAAAAAAAAAAAAAAAAAAAAAAAAAAAAAAAAAAAAAAAAAAAAAAAAAAAAAAAAAAAAAAAAAAAAAAAAAAAAAAAAAAAAAAAAAAAAAAAAAAAAAAAAAAAAAAAAAAAAAAAAAAAAAAAAAAAAAAAAAAAAAAAAAAAAAAAAAAAAAAAAAAAAAAAAAAAAAAAAAAAAAAAAAAAAAAAAAAAAAAAAAAAAAAAAAAAAAAAAAAAAAAAAAAAAAAAAAAAAAAAAAAAAAAAAAAAAAAAAAAAAAAAAAAAAAAAAAAAAAAAAAAAAAAAAAAAAAAAAAAAAAAAAAAAAAAAAAAAAAAAAAAAAAAAAAAAAAAAAAAAAAAAAAAAAAAAAAAAAAAAAAAAAAAAAAAAAAAAAAAAAAAAAAAAAAAAAAAAAAAAAAAAAAAAAAAAAAAAAAAAAAAAAAAAAAAAAAAAAAAAAAAAAAAAAAAAAAAAAAAAAAAAAAAAAAAAAAAAAAAAAAAAAAAAAAAAAAAAAAPZYQIZGiRapddBRMSrxJewBSUqHknA3Ven9v0hD6+vFF9PYI/uD+hoQH6+xtl1GxdPqQhjeaI7dMs5KkGK1Pinf2Eo=</c2pa:manifest></metadata><defs><clipPath id="momob"><path d="M94,160 C74,163 18,168 6,186 C2,210 2,236 2,262 C2,284 8,294 8,306 L30.4,306 L52.8,308.6 L75.2,304.7 L97.6,307.3 L120,303.4 L142.4,306 L164.8,308.6 L187.2,304.7 L209.6,307.3 L232,303.4 C232,294 238,284 238,262 C238,236 238,210 234,186 C222,168 166,163 146,160Z"></path></clipPath><clipPath id="momoh"><path d="M120,40 C155,40 170,58.900000000000006 170,103 C170,142.9 155,160 120,160 C85,160 70,142.9 70,103 C70,58.900000000000006 85,40 120,40Z"></path></clipPath><filter id="momoc" x="-12%" y="-10%" width="124%" height="120%" color-interpolation-filters="sRGB"><feMorphology in="SourceAlpha" operator="dilate" radius="5" result="d"></feMorphology><feTurbulence type="fractalNoise" baseFrequency="0.045" numOctaves="2" seed="44" result="n"></feTurbulence><feDisplacementMap in="d" in2="n" scale="9" xChannelSelector="R" yChannelSelector="G" result="dd"></feDisplacementMap><feFlood flood-color="#FFFFFF" result="w"></feFlood><feComposite in="w" in2="dd" operator="in" result="wb"></feComposite><feOffset in="dd" dx="4" dy="5" result="so"></feOffset><feFlood flood-color="#151515" flood-opacity=".3"></feFlood><feComposite in2="so" operator="in" result="shd"></feComposite><feTurbulence type="fractalNoise" baseFrequency=".85" numOctaves="2" seed="51" result="g"></feTurbulence><feColorMatrix in="g" type="matrix" values="0 0 0 0 0.08  0 0 0 0 0.08  0 0 0 0 0.08  0.55 0 0 0 -0.24" result="ga"></feColorMatrix><feComposite in="ga" in2="SourceAlpha" operator="in" result="gr"></feComposite><feMerge><feMergeNode in="shd"></feMergeNode><feMergeNode in="wb"></feMergeNode><feMergeNode in="SourceGraphic"></feMergeNode><feMergeNode in="gr"></feMergeNode></feMerge></filter></defs><g filter="url(#momoc)"><g id="cheveux_arriere" data-calque="cheveux_arriere"></g><g id="corps" data-calque="corps"><rect x="94" y="124" width="52" height="52" fill="#B97A52"></rect><path d="M94,160 C74,163 18,168 6,186 C2,210 2,236 2,262 C2,284 8,294 8,306 L30.4,306 L52.8,308.6 L75.2,304.7 L97.6,307.3 L120,303.4 L142.4,306 L164.8,308.6 L187.2,304.7 L209.6,307.3 L232,303.4 C232,294 238,284 238,262 C238,236 238,210 234,186 C222,168 166,163 146,160Z" fill="#B97A52"></path></g><g id="maillot" data-calque="maillot"><g clip-path="url(#momob)"><path d="M94,160 C74,163 18,168 6,186 C3,194 2,204 2,214 L24,218 C24,240 22,238 22,262 C22,284 28,294 28,306 L46.4,306 L64.8,308.6 L83.2,304.7 L101.6,307.3 L120,303.4 L138.4,306 L156.8,308.6 L175.2,304.7 L193.6,307.3 L212,303.4 C212,294 218,284 218,262 C218,238 216,240 216,218 L238,214 C238,204 237,194 234,186 C222,168 166,163 146,160Z" fill="#151515"></path><path d="M98,157 Q120,176 142,157Z" fill="#B97A52"></path><path d="M97,157 Q120,177 143,157" fill="none" stroke="#3f3f3f" stroke-width="4.5"></path><path d="M74,206 Q98,220 116,204 M166,206 Q142,220 124,204 M120,230 v40" fill="none" stroke="#444444" stroke-width="3" stroke-linecap="round"></path></g></g><g id="ombres" data-calque="ombres"><g transform="translate(1.5 1)"><g clip-path="url(#momob)" fill="#151515" opacity=".2"><ellipse cx="120" cy="162" rx="31" ry="14"></ellipse><path d="M178,160 C236,170 248,250 232,316 L181.60000000000002,316 C202.6,250 189.6,190 178,160Z"></path></g></g></g><g id="tete" data-calque="tete"><ellipse cx="71.5" cy="103.6" rx="7.800000000000001" ry="10.200000000000001" fill="#B97A52"></ellipse><ellipse cx="168.5" cy="103.6" rx="7.800000000000001" ry="10.200000000000001" fill="#B97A52"></ellipse><ellipse cx="71.5" cy="103.6" rx="3.9000000000000004" ry="5.3999999999999995" fill="#9b6847"></ellipse><ellipse cx="168.5" cy="103.6" rx="3.9000000000000004" ry="5.3999999999999995" fill="#9b6847"></ellipse><path d="M120,40 C155,40 170,58.900000000000006 170,103 C170,142.9 155,160 120,160 C85,160 70,142.9 70,103 C70,58.900000000000006 85,40 120,40Z" fill="#B97A52"></path><g clip-path="url(#momoh)"><ellipse cx="172.5" cy="106" rx="22.5" ry="72" fill="#151515" opacity=".13"></ellipse><path d="M72.5,112 C75,163 165,163 167.5,112 C150,130 90,130 72.5,112Z" fill="#151515" opacity="0.7"></path></g></g><g id="cheveux" data-calque="cheveux"><path d="M70,104.8 C67.5,14.4 172.5,14.4 170,104.8 C164,67.6 145,60.4 120,60.4 C95,60.4 76,67.6 70,104.8Z" fill="#151515" opacity="0.35"></path><path d="M74,88 C71.5,20 168.5,20 166,88 C164,66.4 145,59.2 120,59.2 C95,59.2 76,66.4 74,88Z" fill="#151515"></path></g><g id="yeux" data-calque="yeux"><circle cx="101" cy="100" r="10.5" fill="#FFFFFF"></circle><circle cx="102" cy="101" r="3" fill="#151515"></circle><circle cx="139" cy="100" r="10.5" fill="#FFFFFF"></circle><circle cx="138" cy="101" r="3" fill="#151515"></circle></g><g id="sourcils" data-calque="sourcils"><rect x="92" y="70.5" width="18" height="7" rx="3.5" fill="#151515" transform="rotate(-8 101 74)"></rect><rect x="130" y="70.5" width="18" height="7" rx="3.5" fill="#151515" transform="rotate(8 139 74)"></rect></g><g id="nez" data-calque="nez"><ellipse cx="120" cy="121" rx="11" ry="6.6" fill="#986646"></ellipse><ellipse cx="116" cy="124" rx="2.6" ry="1.8" fill="#151515" opacity=".5"></ellipse><ellipse cx="124" cy="124" rx="2.6" ry="1.8" fill="#151515" opacity=".5"></ellipse></g><g id="bouche" data-calque="bouche"><ellipse cx="120" cy="139.8" rx="5.500000000000001" ry="11" fill="#151515"></ellipse><ellipse cx="120" cy="145.8" rx="3.3000000000000003" ry="4" fill="#E1341E"></ellipse></g><g id="moustache" data-calque="moustache"></g><g id="accessoires" data-calque="accessoires"></g></g></svg>