<svg xmlns="http://www.w3.org/2000/svg" viewBox="-12 -10 264 336" width="264" height="336" preserveAspectRatio="xMidYMax meet" style="display:block;overflow:visible" xmlns:c2pa="http://c2pa.org/manifest"><metadata><c2pa:manifest>AAAWgmp1bWIAAAAeanVtZGMycGEAEQAQgAAAqgA4m3EDYzJwYQAAABZcanVtYgAAAEdqdW1kYzJtYQARABCAAACqADibcQN1cm46YzJwYTpmMzdlYTA0MC02OTY4LTRmMWMtYTViOS02MmJmZjNhN2Y3OTkAAAADl2p1bWIAAAApanVtZGMyYXMAEQAQgAAAqgA4m3EDYzJwYS5hc3NlcnRpb25zAAAAALxqdW1iAAAARGp1bWRjYm9yABEAEIAAAKoAOJtxE2MycGEuaW5ncmVkaWVudC52MwAAAAAYYzJzaHffV5Abb7X6fqvBwljon6YAAABwY2JvcqNpZGM6Zm9ybWF0bWltYWdlL3N2Zyt4bWxqaW5zdGFuY2VJRHgseG1wOmlpZDo2YzdkN2Y5NC02MmQ3LTRjNzAtODY4Ni00OWFhMzA4MTU0ZTFscmVsYXRpb25zaGlwaHBhcmVudE9mAAAB4mp1bWIAAABBanVtZGNib3IAEQAQgAAAqgA4m3ETYzJwYS5hY3Rpb25zLnYyAAAAABhjMnNoDRXl+v4XrAvpEok1pYeQFwAAAZljYm9yomdhY3Rpb25zgqJmYWN0aW9ua2MycGEub3BlbmVkanBhcmFtZXRlcnOha2luZ3JlZGllbnRzgaJjdXJseC1zZWxmI2p1bWJmPWMycGEuYXNzZXJ0aW9ucy9jMnBhLmluZ3JlZGllbnQudjNkaGFzaFggwIUG18KOOjZ6m4N+2Z8bYmPXkxWwuOYAd4xEkwmfO5mkZmFjdGlvbngdY29tLmFudGhyb3BpYy5jbGF1ZGUucHJvdmlkZWRqcGFyYW1ldGVyc6F4H2NvbS5hbnRocm9waWMub3JpZ2luLWNvbmZpZGVuY2VndW5rbm93bmtkZXNjcmlwdGlvbnhmQ2xhdWRlIHByb3ZpZGVkIHRoaXMgZmlsZSBhdCB0aGUgcmVxdWVzdCBvZiBhIHVzZXIgYW5kIG1heSBoYXZlIGNyZWF0ZWQgb3IgbW9kaWZpZWQgdGhlIGZpbGUgY29udGVudHMubXNvZnR3YXJlQWdlbnShZG5hbWVmQ2xhdWRlcmFsbEFjdGlvbnNJbmNsdWRlZPUAAADIanVtYgAAAEBqdW1kY2JvcgARABCAAACqADibcRNjMnBhLmhhc2guZGF0YQAAAAAYYzJzaADonbH3hk7kFmy4vTCLvJ4AAACAY2JvcqVjYWxnZnNoYTI1NmNwYWRNAAAAAAAAAAAAAAAAAGRoYXNoWCBFx6CEZsVVhzvHfUa4uJ7Nk/3tx9L+4ajttdhqciEfJ2RuYW1lbmp1bWJmIG1hbmlmZXN0amV4Y2x1c2lvbnOBomVzdGFydBjlZmxlbmd0aBkeBAAAAj5qdW1iAAAAJ2p1bWRjMmNsABEAEIAAAKoAOJtxA2MycGEuY2xhaW0udjIAAAACD2Nib3KlY2FsZ2ZzaGEyNTZpc2lnbmF0dXJleE1zZWxmI2p1bWJmPS9jMnBhL3VybjpjMnBhOmYzN2VhMDQwLTY5NjgtNGYxYy1hNWI5LTYyYmZmM2E3Zjc5OS9jMnBhLnNpZ25hdHVyZWppbnN0YW5jZUlEeCx4bXA6aWlkOjYxMWViODVjLWZhYTMtNGFlZC1iNzUzLTdmMDBhNTU3YWNhNXJjcmVhdGVkX2Fzc2VydGlvbnODomN1cmx4LXNlbGYjanVtYmY9YzJwYS5hc3NlcnRpb25zL2MycGEuaW5ncmVkaWVudC52M2RoYXNoWCDAhQbXwo46Nnqbg37ZnxtiY9eTFbC45gB3jESTCZ87maJjdXJseCpzZWxmI2p1bWJmPWMycGEuYXNzZXJ0aW9ucy9jMnBhLmFjdGlvbnMudjJkaGFzaFggbPklVVDdLvhvMMIZPRivb5x/2FSVBoem3Umdj5UHLTqiY3VybHgpc2VsZiNqdW1iZj1jMnBhLmFzc2VydGlvbnMvYzJwYS5oYXNoLmRhdGFkaGFzaFggzfxMbb8QAbNIbgzkwG8pw5vQ0RL1027Er3QxM6ewKLp0Y2xhaW1fZ2VuZXJhdG9yX2luZm+jZG5hbWVvQW50aHJvcGljIEZpbGVzZ3ZlcnNpb25lMS4wLjBrc3BlY1ZlcnNpb25lMi40LjAAABA4anVtYgAAAChqdW1kYzJjcwARABCAAACqADibcQNjMnBhLnNpZ25hdHVyZQAAABAIY2JvctKEWQISogEmGCFZAgowggIGMIIBjaADAgECAhRA5aAK7sI50L64g/oGQgU9Z1UTADAKBggqhkjOPQQDAzBJMRcwFQYDVQQKEw5BbnRocm9waWMsIFBCQzEuMCwGA1UEAxMlQW50aHJvcGljIENvbnRlbnQgQ3JlZGVudGlhbHMgUm9vdCBDQTAeFw0yNjA4MDcxODQzNTZaFw0yODA4MDYxOTQzNTZaMEQxFzAVBgNVBAoTDkFudGhyb3BpYywgUEJDMSkwJwYDVQQDEyBBbnRocm9waWMgQ2xhdWRlIENvbnRlbnQgU2lnbmluZzBZMBMGByqGSM49AgEGCCqGSM49AwEHA0IABJh6CmvLUBgFFNU0vUKlOVtE6djd17L5SuwX0LemFisBM3dkd/3cyjxFA3Qo5S46fX0/ihY0VZ7mfb9KF703t5OjWDBWMA4GA1UdDwEB/wQEAwIHgDAVBgNVHSUEDjAMBgorBgEEAYPoXgIBMAwGA1UdEwEB/wQCMAAwHwYDVR0jBBgwFoAUzlHiBIFOZFsj+OPEz5o+nMHXXMIwCgYIKoZIzj0EAwMDZwAwZAIwMXMdFJ4BetLLVY7ORuE9noqbbAZOZn/aArXyTwFAZfKrPzxF2vPoJNf1+UCdg1XGAjBwX1zd9WGqYkqmL5SFqw1QySjr1zJfpJM9+1rdDwSPLMOPOjKuiXjoU/pUUeG9RwmhY3BhZFkNngAAAAAAAAAAAAAAAAAAAAAAAAAAAAAAAAAAAAAAAAAAAAAAAAAAAAAAAAAAAAAAAAAAAAAAAAAAAAAAAAAAAAAAAAAAAAAAAAAAAAAAAAAAAAAAAAAAAAAAAAAAAAAAAAAAAAAAAAAAAAAAAAAAAAAAAAAAAAAAAAAAAAAAAAAAAAAAAAAAAAAAAAAAAAAAAAAAAAAAAAAAAAAAAAAAAAAAAAAAAAAAAAAAAAAAAAAAAAAAAAAAAAAAAAAAAAAAAAAAAAAAAAAAAAAAAAAAAAAAAAAAAAAAAAAAAAAAAAAAAAAAAAAAAAAAAAAAAAAAAAAAAAAAAAAAAAAAAAAAAAAAAAAAAAAAAAAAAAAAAAAAAAAAAAAAAAAAAAAAAAAAAAAAAAAAAAAAAAAAAAAAAAAAAAAAAAAAAAAAAAAAAAAAAAAAAAAAAAAAAAAAAAAAAAAAAAAAAAAAAAAAAAAAAAAAAAAAAAAAAAAAAAAAAAAAAAAAAAAAAAAAAAAAAAAAAAAAAAAAAAAAAAAAAAAAAAAAAAAAAAAAAAAAAAAAAAAAAAAAAAAAAAAAAAAAAAAAAAAAAAAAAAAAAAAAAAAAAAAAAAAAAAAAAAAAAAAAAAAAAAAAAAAAAAAAAAAAAAAAAAAAAAAAAAAAAAAAAAAAAAAAAAAAAAAAAAAAAAAAAAAAAAAAAAAAAAAAAAAAAAAAAAAAAAAAAAAAAAAAAAAAAAAAAAAAAAAAAAAAAAAAAAAAAAAAAAAAAAAAAAAAAAAAAAAAAAAAAAAAAAAAAAAAAAAAAAAAAAAAAAAAAAAAAAAAAAAAAAAAAAAAAAAAAAAAAAAAAAAAAAAAAAAAAAAAAAAAAAAAAAAAAAAAAAAAAAAAAAAAAAAAAAAAAAAAAAAAAAAAAAAAAAAAAAAAAAAAAAAAAAAAAAAAAAAAAAAAAAAAAAAAAAAAAAAAAAAAAAAAAAAAAAAAAAAAAAAAAAAAAAAAAAAAAAAAAAAAAAAAAAAAAAAAAAAAAAAAAAAAAAAAAAAAAAAAAAAAAAAAAAAAAAAAAAAAAAAAAAAAAAAAAAAAAAAAAAAAAAAAAAAAAAAAAAAAAAAAAAAAAAAAAAAAAAAAAAAAAAAAAAAAAAAAAAAAAAAAAAAAAAAAAAAAAAAAAAAAAAAAAAAAAAAAAAAAAAAAAAAAAAAAAAAAAAAAAAAAAAAAAAAAAAAAAAAAAAAAAAAAAAAAAAAAAAAAAAAAAAAAAAAAAAAAAAAAAAAAAAAAAAAAAAAAAAAAAAAAAAAAAAAAAAAAAAAAAAAAAAAAAAAAAAAAAAAAAAAAAAAAAAAAAAAAAAAAAAAAAAAAAAAAAAAAAAAAAAAAAAAAAAAAAAAAAAAAAAAAAAAAAAAAAAAAAAAAAAAAAAAAAAAAAAAAAAAAAAAAAAAAAAAAAAAAAAAAAAAAAAAAAAAAAAAAAAAAAAAAAAAAAAAAAAAAAAAAAAAAAAAAAAAAAAAAAAAAAAAAAAAAAAAAAAAAAAAAAAAAAAAAAAAAAAAAAAAAAAAAAAAAAAAAAAAAAAAAAAAAAAAAAAAAAAAAAAAAAAAAAAAAAAAAAAAAAAAAAAAAAAAAAAAAAAAAAAAAAAAAAAAAAAAAAAAAAAAAAAAAAAAAAAAAAAAAAAAAAAAAAAAAAAAAAAAAAAAAAAAAAAAAAAAAAAAAAAAAAAAAAAAAAAAAAAAAAAAAAAAAAAAAAAAAAAAAAAAAAAAAAAAAAAAAAAAAAAAAAAAAAAAAAAAAAAAAAAAAAAAAAAAAAAAAAAAAAAAAAAAAAAAAAAAAAAAAAAAAAAAAAAAAAAAAAAAAAAAAAAAAAAAAAAAAAAAAAAAAAAAAAAAAAAAAAAAAAAAAAAAAAAAAAAAAAAAAAAAAAAAAAAAAAAAAAAAAAAAAAAAAAAAAAAAAAAAAAAAAAAAAAAAAAAAAAAAAAAAAAAAAAAAAAAAAAAAAAAAAAAAAAAAAAAAAAAAAAAAAAAAAAAAAAAAAAAAAAAAAAAAAAAAAAAAAAAAAAAAAAAAAAAAAAAAAAAAAAAAAAAAAAAAAAAAAAAAAAAAAAAAAAAAAAAAAAAAAAAAAAAAAAAAAAAAAAAAAAAAAAAAAAAAAAAAAAAAAAAAAAAAAAAAAAAAAAAAAAAAAAAAAAAAAAAAAAAAAAAAAAAAAAAAAAAAAAAAAAAAAAAAAAAAAAAAAAAAAAAAAAAAAAAAAAAAAAAAAAAAAAAAAAAAAAAAAAAAAAAAAAAAAAAAAAAAAAAAAAAAAAAAAAAAAAAAAAAAAAAAAAAAAAAAAAAAAAAAAAAAAAAAAAAAAAAAAAAAAAAAAAAAAAAAAAAAAAAAAAAAAAAAAAAAAAAAAAAAAAAAAAAAAAAAAAAAAAAAAAAAAAAAAAAAAAAAAAAAAAAAAAAAAAAAAAAAAAAAAAAAAAAAAAAAAAAAAAAAAAAAAAAAAAAAAAAAAAAAAAAAAAAAAAAAAAAAAAAAAAAAAAAAAAAAAAAAAAAAAAAAAAAAAAAAAAAAAAAAAAAAAAAAAAAAAAAAAAAAAAAAAAAAAAAAAAAAAAAAAAAAAAAAAAAAAAAAAAAAAAAAAAAAAAAAAAAAAAAAAAAAAAAAAAAAAAAAAAAAAAAAAAAAAAAAAAAAAAAAAAAAAAAAAAAAAAAAAAAAAAAAAAAAAAAAAAAAAAAAAAAAAAAAAAAAAAAAAAAAAAAAAAAAAAAAAAAAAAAAAAAAAAAAAAAAAAAAAAAAAAAAAAAAAAAAAAAAAAAAAAAAAAAAAAAAAAAAAAAAAAAAAAAAAAAAAAAAAAAAAAAAAAAAAAAAAAAAAAAAAAAAAAAAAAAAAAAAAAAAAAAAAAAAAAAAAAAAAAAAAAAAAAAAAAAAAAAAAAAAAAAAAAAAAAAAAAAAAAAAAAAAAAAAAAAAAAAAAAAAAAAAAAAAAAAAAAAAAAAAAAAAAAAAAAAAAAAAAAAAAAAAAAAAAAAAAAAAAAAAAAAAAAAAAAAAAAAAAAAAAAAAAAAAAAAAAAAAAAAAAAAAAAAAAAAAAAAAAAAAAAAAAAAAAAAAAAAAAAAAAAAAAAAAAAAAAAAAAAAAAAAAAAAAAAAAAAAAAAAAAAAAAAAAAAAAAAAAAAAAAAAAAAAAAAAAAAAAAAAAAAAAAAAAAAAAAAAAAAAAAAAAAAAAAAAAAAAAAAAAAAAAAAAAAAAAAAAAAAAAAAAAAAAAAAAAAAAAAAAAAAAAAAAAAAAAAAAAAAAAAAAAAAAAAAAAAAAAAAAAAAAAAAAAAAAAAAAAAAAAAAAAAAAAAAAAAAAAAAAAAAAAAAAAAAAAAAAAAAAAAAAAAAAAAAAAAAAAAAAAAAAAAAAAAAAAAAAAAAAAAAAAAAAAAAAAAAAAAAAAAAAAAAAAAAAAAAAAAAAAAAAAAAAAAAAAAAAAAAAAAAAAAAAAAAAAAAAAAAAAAAAAAAAAAAAAAAAAAAAAAAAAAAAAAAAAAAAAAAAAAAAAAAAAAAAAAAAAAAAAAAAAAAAAAAAAAAAAAAAAAAAAAAAAAAAAAAAAAAAAAAAAAAAAAAAAAAAAAAAAAAAAAAAAAAAAAAAAAAAAAAAAAAAAAAAAAAAAAAAAAAAAAAAAAAAAAAAAAAAAAAAAAAAAAAAAAAAAAAAAAAAAAAAAAAAAAAAAAAAAAAAAAAAAAAAAAAAAAAAAAAAAAAAAAAAAAAAAAAAAAAAAAAAAAAAAAAAAAAAAAAAAAAAAAAAAAAAAAAAAAAAAAAAAAAAAAAAAAAAAAAAAAAAAAAAAAAAAAAAAAAAAAAAAAAAAAAAAAAAAAAAAAAAAAAAAAAAAAAAAAAAAAAAAAAAAAAAAAAAAAAAAAAAAAAAAAAAAAAAAAAAAAAAAAAAAAAAAAAAAAAAAAAAAAAAAAAAAAAAAAAAAAAAAAAAAAAAAAAAAAAAAAAAAAAAAAAAAAAAAAAAAAAAAAAAAAAAAAAAAAAAAAAAAAAAAAAAAAAAAAAAAAAAAAAAAAAAAAAAAAAAAAAAAAAAAAAAAAAAAAAAAAAAAAAAAAAAAAAAAAAAAAAAAAAAAAAAAAAAAAAAAAAAAAAAAAAAAAAAAAAAAAAAAAAAAAAAAAAAAAAAAAAAAAAAAAAAAAAAAAAAAAAAAAAAAAAAAAAAAAAAAAAAAAAAAAAAAAAAAAAAAAAAAAAAAAAAAAAAAAAAAAAAAAAAAAAAAAAAAAAAAAAAAAAAAAAAAAAAAAAAAAAAAAAAAAAAAAAAAAAAAAAAAAAAAAAAAAAAAAAAAAAAAAAAAAAAAAAAAAAAAAAAAAAAAAAAAAAAAAAAAAAAAAAAAAAAAAAAAAAAAAAAAAAAAAAAAAAAAAAAAAAAAAAAAAAAAAAAAAAAAAAAAAAAAAAAAAAAAAAAAAAAAAAAAAAAAAAAAAAAAAAAAAAAAAAAAAAAAAAAAAAAAAAAAAAAAAAAAAAAAAAAAAAAAAAAAAAAAAAAAAAAAAAAAAAAAAAAAAAAAAAAAAAAAAAAAAAAAAAAAAAAAAAAAAAAAAAAAAAAAAAAAAAAAAAAAAAAAAAAAAAAAAAAAAAAAAAAAAAAAAAAAAAAAAAAAAAAAAAAAAAAAAAAAAAAAAAAAAAAAAAAAAAAAAAAAAAAAAAAAAAAAAAAAAAAAAAAAAAPZYQBKa5/86E/M6b7eD3hNBFi+4OtE6P/YB9oitEngmA8SCozJeXUG9THmrq7LjCqPA6lYZ9TosBF0+aEvuu65VkAg=</c2pa:manifest></metadata><defs><clipPath id="patronb"><path d="M94.8,161.8 C74.8,164.8 22,169.8 10,187.8 C6,211.8 2,236 2,262 C2,284 6,294 6,306 L28.8,306 L51.6,308.6 L74.4,304.7 L97.2,307.3 L120,303.4 L142.8,306 L165.6,308.6 L188.4,304.7 L211.2,307.3 L234,303.4 C234,294 238,284 238,262 C238,236 234,211.8 230,187.8 C218,169.8 165.2,164.8 145.2,161.8Z"></path></clipPath><clipPath id="patronh"><path d="M120,38 C168,38 180,51.887999999999984 180,107.44 C180,151.088 168,162 120,162 C72,162 60,151.088 60,107.44 C60,51.887999999999984 72,38 120,38Z"></path></clipPath><filter id="patronc" x="-12%" y="-10%" width="124%" height="120%" color-interpolation-filters="sRGB"><feMorphology in="SourceAlpha" operator="dilate" radius="5" result="d"></feMorphology><feTurbulence type="fractalNoise" baseFrequency="0.045" numOctaves="2" seed="41" result="n"></feTurbulence><feDisplacementMap in="d" in2="n" scale="9" xChannelSelector="R" yChannelSelector="G" result="dd"></feDisplacementMap><feFlood flood-color="#FFFFFF" result="w"></feFlood><feComposite in="w" in2="dd" operator="in" result="wb"></feComposite><feOffset in="dd" dx="4" dy="5" result="so"></feOffset><feFlood flood-color="#151515" flood-opacity=".3"></feFlood><feComposite in2="so" operator="in" result="shd"></feComposite><feTurbulence type="fractalNoise" baseFrequency=".85" numOctaves="2" seed="48" result="g"></feTurbulence><feColorMatrix in="g" type="matrix" values="0 0 0 0 0.08  0 0 0 0 0.08  0 0 0 0 0.08  0.55 0 0 0 -0.24" result="ga"></feColorMatrix><feComposite in="ga" in2="SourceAlpha" operator="in" result="gr"></feComposite><feMerge><feMergeNode in="shd"></feMergeNode><feMergeNode in="wb"></feMergeNode><feMergeNode in="SourceGraphic"></feMergeNode><feMergeNode in="gr"></feMergeNode></feMerge></filter></defs><g filter="url(#patronc)"><g id="cheveux_arriere" data-calque="cheveux_arriere"></g><g id="corps" data-calque="corps"><rect x="94.8" y="124.8" width="50.4" height="53.000000000000014" fill="#D9A27E"></rect><path d="M94.8,161.8 C74.8,164.8 22,169.8 10,187.8 C6,211.8 2,236 2,262 C2,284 6,294 6,306 L28.8,306 L51.6,308.6 L74.4,304.7 L97.2,307.3 L120,303.4 L142.8,306 L165.6,308.6 L188.4,304.7 L211.2,307.3 L234,303.4 C234,294 238,284 238,262 C238,236 234,211.8 230,187.8 C218,169.8 165.2,164.8 145.2,161.8Z" fill="#D9A27E"></path></g><g id="maillot" data-calque="maillot"><g clip-path="url(#patronb)"><path d="M94.8,161.8 C74.8,164.8 22,169.8 10,187.8 C7,195.8 6,205.8 6,215.8 L24,219.8 C24,241.8 18,238 18,262 C18,284 22,294 22,306 L41.6,306 L61.2,308.6 L80.8,304.7 L100.4,307.3 L120,303.4 L139.6,306 L159.2,308.6 L178.8,304.7 L198.4,307.3 L218,303.4 C218,294 222,284 222,262 C222,238 216,241.8 216,219.8 L234,215.8 C234,205.8 233,195.8 230,187.8 C218,169.8 165.2,164.8 145.2,161.8Z" fill="#EC7A2E"></path><path d="M98,158.8 Q120,177.8 142,158.8Z" fill="#D9A27E"></path><path d="M97,158.8 Q120,178.8 143,158.8" fill="none" stroke="#b66128" stroke-width="4.5"></path><rect x="144" y="195.8" width="24" height="22" fill="#ce6c2b"></rect></g></g><g id="ombres" data-calque="ombres"><g transform="translate(1.5 1)"><g clip-path="url(#patronb)" fill="#151515" opacity=".2"><ellipse cx="120" cy="163.8" rx="37.2" ry="14"></ellipse><path d="M176,161.8 C232,171.8 248,250 234,316 L182.7,316 C202.6,250 187.2,191.8 176,161.8Z"></path><path d="M37.400000000000006,282 Q120,300 202.6,282 L202.6,292 Q120,312 37.400000000000006,292Z"></path></g></g></g><g id="tete" data-calque="tete"><ellipse cx="61.800000000000004" cy="103.72" rx="8.06" ry="10.540000000000001" fill="#D9A27E"></ellipse><ellipse cx="178.2" cy="103.72" rx="8.06" ry="10.540000000000001" fill="#D9A27E"></ellipse><ellipse cx="61.800000000000004" cy="103.72" rx="4.03" ry="5.58" fill="#b6896b"></ellipse><ellipse cx="178.2" cy="103.72" rx="4.03" ry="5.58" fill="#b6896b"></ellipse><path d="M120,38 C168,38 180,51.887999999999984 180,107.44 C180,151.088 168,162 120,162 C72,162 60,151.088 60,107.44 C60,51.887999999999984 72,38 120,38Z" fill="#D9A27E"></path><g clip-path="url(#patronh)"><ellipse cx="183" cy="106.2" rx="27" ry="74.39999999999999" fill="#151515" opacity=".13"></ellipse></g></g><g id="cheveux" data-calque="cheveux"><path d="M60,100 C57,13.2 183,13.2 180,100 C172.8,69 150,61.6 120,61.6 C90,61.6 67.2,69 60,100Z" fill="#3A2A1E"></path></g><g id="yeux" data-calque="yeux"><ellipse cx="97.2" cy="101" rx="3.8" ry="4.4" fill="#151515"></ellipse><ellipse cx="142.8" cy="101" rx="3.8" ry="4.4" fill="#151515"></ellipse></g><g id="sourcils" data-calque="sourcils"><rect x="90.2" y="82.25" width="18" height="7.5" rx="3.75" fill="#2A1E16" transform="rotate(24 99.2 86)"></rect><rect x="131.8" y="82.25" width="18" height="7.5" rx="3.75" fill="#2A1E16" transform="rotate(-24 140.8 86)"></rect></g><g id="nez" data-calque="nez"><ellipse cx="123" cy="118.6" rx="13.2" ry="9.299999999999999" fill="#C9835E"></ellipse><ellipse cx="128.4" cy="120.6" rx="6" ry="5.58" fill="#151515" opacity=".1"></ellipse></g><g id="bouche" data-calque="bouche"><path d="M99.53999999999999,129.96 Q120,122.96000000000001 140.46,129.96 L133.86,159.96 Q120,167.96 106.14,159.96Z" fill="#151515"></path><path d="M102.84,128.96 Q120,123.46000000000001 137.16,128.96 L136.17,134.46 Q120,129.46 103.83,134.46Z" fill="#FFFFFF"></path><ellipse cx="120" cy="157.96" rx="9.24" ry="6" fill="#E1341E"></ellipse></g><g id="moustache" data-calque="moustache"><path fill="#3A2A1E" d="M120,117.96000000000001 C112,111.96000000000001 97.1904,114.96000000000001 93.6264,133.96 C102.18,128.96 111.09,130.96 120,125.96000000000001 C128.91,130.96 137.82,128.96 146.3736,133.96 C142.8096,114.96000000000001 128,111.96000000000001 120,117.96000000000001Z"></path></g><g id="accessoires" data-calque="accessoires"><g transform="rotate(-35 177 96.9)"><rect x="173.5" y="70.9" width="7" height="40" fill="#F2C94C"></rect><path d="M173.5,110.9 l3.5,8 l3.5,-8Z" fill="#F4E7A8"></path></g></g></g></svg>