<svg xmlns="http://www.w3.org/2000/svg" viewBox="-12 -10 264 336" width="264" height="336" preserveAspectRatio="xMidYMax meet" style="display:block;overflow:visible" xmlns:c2pa="http://c2pa.org/manifest"><metadata><c2pa:manifest>AAAWgmp1bWIAAAAeanVtZGMycGEAEQAQgAAAqgA4m3EDYzJwYQAAABZcanVtYgAAAEdqdW1kYzJtYQARABCAAACqADibcQN1cm46YzJwYTpkODFlNGEyMS1jMDdmLTQ1MjYtODgwZC1iZGIyYTg4OWIwYjEAAAADl2p1bWIAAAApanVtZGMyYXMAEQAQgAAAqgA4m3EDYzJwYS5hc3NlcnRpb25zAAAAALxqdW1iAAAARGp1bWRjYm9yABEAEIAAAKoAOJtxE2MycGEuaW5ncmVkaWVudC52MwAAAAAYYzJzaGdzvtjF2IDnKthQIXA5sZEAAABwY2JvcqNpZGM6Zm9ybWF0bWltYWdlL3N2Zyt4bWxqaW5zdGFuY2VJRHgseG1wOmlpZDo5NTM0MmRlYi1lNWVjLTRhMDQtODI1MS0zMjVmMGFjMGI2NTlscmVsYXRpb25zaGlwaHBhcmVudE9mAAAB4mp1bWIAAABBanVtZGNib3IAEQAQgAAAqgA4m3ETYzJwYS5hY3Rpb25zLnYyAAAAABhjMnNo2gzpeRZFl5O7l94LAT00FAAAAZljYm9yomdhY3Rpb25zgqJmYWN0aW9ua2MycGEub3BlbmVkanBhcmFtZXRlcnOha2luZ3JlZGllbnRzgaJjdXJseC1zZWxmI2p1bWJmPWMycGEuYXNzZXJ0aW9ucy9jMnBhLmluZ3JlZGllbnQudjNkaGFzaFgg0mvWD393hJUuJqgERnRDS/pg3+OJXeC7n1uQxgxDEeGkZmFjdGlvbngdY29tLmFudGhyb3BpYy5jbGF1ZGUucHJvdmlkZWRqcGFyYW1ldGVyc6F4H2NvbS5hbnRocm9waWMub3JpZ2luLWNvbmZpZGVuY2VndW5rbm93bmtkZXNjcmlwdGlvbnhmQ2xhdWRlIHByb3ZpZGVkIHRoaXMgZmlsZSBhdCB0aGUgcmVxdWVzdCBvZiBhIHVzZXIgYW5kIG1heSBoYXZlIGNyZWF0ZWQgb3IgbW9kaWZpZWQgdGhlIGZpbGUgY29udGVudHMubXNvZnR3YXJlQWdlbnShZG5hbWVmQ2xhdWRlcmFsbEFjdGlvbnNJbmNsdWRlZPUAAADIanVtYgAAAEBqdW1kY2JvcgARABCAAACqADibcRNjMnBhLmhhc2guZGF0YQAAAAAYYzJzaEgHa7s85fL+wPAkY/yWfdkAAACAY2JvcqVjYWxnZnNoYTI1NmNwYWRNAAAAAAAAAAAAAAAAAGRoYXNoWCBN0LppnRaRWJJxbeIR+glmOFuibxMvwn62FZjOKh5QFGRuYW1lbmp1bWJmIG1hbmlmZXN0amV4Y2x1c2lvbnOBomVzdGFydBjlZmxlbmd0aBkeBAAAAj5qdW1iAAAAJ2p1bWRjMmNsABEAEIAAAKoAOJtxA2MycGEuY2xhaW0udjIAAAACD2Nib3KlY2FsZ2ZzaGEyNTZpc2lnbmF0dXJleE1zZWxmI2p1bWJmPS9jMnBhL3VybjpjMnBhOmQ4MWU0YTIxLWMwN2YtNDUyNi04ODBkLWJkYjJhODg5YjBiMS9jMnBhLnNpZ25hdHVyZWppbnN0YW5jZUlEeCx4bXA6aWlkOmFjYTcyNzdiLTI5MjAtNDI5Mi1hY2I2LWQzZDMyMGUzYzg4YnJjcmVhdGVkX2Fzc2VydGlvbnODomN1cmx4LXNlbGYjanVtYmY9YzJwYS5hc3NlcnRpb25zL2MycGEuaW5ncmVkaWVudC52M2RoYXNoWCDSa9YPf3eElS4mqARGdENL+mDf44ld4LufW5DGDEMR4aJjdXJseCpzZWxmI2p1bWJmPWMycGEuYXNzZXJ0aW9ucy9jMnBhLmFjdGlvbnMudjJkaGFzaFggRdvuW7/YOgygmIfG7obVABqCR3wsF7NQ0Fs148CDA52iY3VybHgpc2VsZiNqdW1iZj1jMnBhLmFzc2VydGlvbnMvYzJwYS5oYXNoLmRhdGFkaGFzaFggMzKlRfwGtj6ArYOdq6yKQrHthRafw0DCEXGjW2rseG90Y2xhaW1fZ2VuZXJhdG9yX2luZm+jZG5hbWVvQW50aHJvcGljIEZpbGVzZ3ZlcnNpb25lMS4wLjBrc3BlY1ZlcnNpb25lMi40LjAAABA4anVtYgAAAChqdW1kYzJjcwARABCAAACqADibcQNjMnBhLnNpZ25hdHVyZQAAABAIY2JvctKEWQISogEmGCFZAgowggIGMIIBjaADAgECAhRA5aAK7sI50L64g/oGQgU9Z1UTADAKBggqhkjOPQQDAzBJMRcwFQYDVQQKEw5BbnRocm9waWMsIFBCQzEuMCwGA1UEAxMlQW50aHJvcGljIENvbnRlbnQgQ3JlZGVudGlhbHMgUm9vdCBDQTAeFw0yNjA4MDcxODQzNTZaFw0yODA4MDYxOTQzNTZaMEQxFzAVBgNVBAoTDkFudGhyb3BpYywgUEJDMSkwJwYDVQQDEyBBbnRocm9waWMgQ2xhdWRlIENvbnRlbnQgU2lnbmluZzBZMBMGByqGSM49AgEGCCqGSM49AwEHA0IABJh6CmvLUBgFFNU0vUKlOVtE6djd17L5SuwX0LemFisBM3dkd/3cyjxFA3Qo5S46fX0/ihY0VZ7mfb9KF703t5OjWDBWMA4GA1UdDwEB/wQEAwIHgDAVBgNVHSUEDjAMBgorBgEEAYPoXgIBMAwGA1UdEwEB/wQCMAAwHwYDVR0jBBgwFoAUzlHiBIFOZFsj+OPEz5o+nMHXXMIwCgYIKoZIzj0EAwMDZwAwZAIwMXMdFJ4BetLLVY7ORuE9noqbbAZOZn/aArXyTwFAZfKrPzxF2vPoJNf1+UCdg1XGAjBwX1zd9WGqYkqmL5SFqw1QySjr1zJfpJM9+1rdDwSPLMOPOjKuiXjoU/pUUeG9RwmhY3BhZFkNngAAAAAAAAAAAAAAAAAAAAAAAAAAAAAAAAAAAAAAAAAAAAAAAAAAAAAAAAAAAAAAAAAAAAAAAAAAAAAAAAAAAAAAAAAAAAAAAAAAAAAAAAAAAAAAAAAAAAAAAAAAAAAAAAAAAAAAAAAAAAAAAAAAAAAAAAAAAAAAAAAAAAAAAAAAAAAAAAAAAAAAAAAAAAAAAAAAAAAAAAAAAAAAAAAAAAAAAAAAAAAAAAAAAAAAAAAAAAAAAAAAAAAAAAAAAAAAAAAAAAAAAAAAAAAAAAAAAAAAAAAAAAAAAAAAAAAAAAAAAAAAAAAAAAAAAAAAAAAAAAAAAAAAAAAAAAAAAAAAAAAAAAAAAAAAAAAAAAAAAAAAAAAAAAAAAAAAAAAAAAAAAAAAAAAAAAAAAAAAAAAAAAAAAAAAAAAAAAAAAAAAAAAAAAAAAAAAAAAAAAAAAAAAAAAAAAAAAAAAAAAAAAAAAAAAAAAAAAAAAAAAAAAAAAAAAAAAAAAAAAAAAAAAAAAAAAAAAAAAAAAAAAAAAAAAAAAAAAAAAAAAAAAAAAAAAAAAAAAAAAAAAAAAAAAAAAAAAAAAAAAAAAAAAAAAAAAAAAAAAAAAAAAAAAAAAAAAAAAAAAAAAAAAAAAAAAAAAAAAAAAAAAAAAAAAAAAAAAAAAAAAAAAAAAAAAAAAAAAAAAAAAAAAAAAAAAAAAAAAAAAAAAAAAAAAAAAAAAAAAAAAAAAAAAAAAAAAAAAAAAAAAAAAAAAAAAAAAAAAAAAAAAAAAAAAAAAAAAAAAAAAAAAAAAAAAAAAAAAAAAAAAAAAAAAAAAAAAAAAAAAAAAAAAAAAAAAAAAAAAAAAAAAAAAAAAAAAAAAAAAAAAAAAAAAAAAAAAAAAAAAAAAAAAAAAAAAAAAAAAAAAAAAAAAAAAAAAAAAAAAAAAAAAAAAAAAAAAAAAAAAAAAAAAAAAAAAAAAAAAAAAAAAAAAAAAAAAAAAAAAAAAAAAAAAAAAAAAAAAAAAAAAAAAAAAAAAAAAAAAAAAAAAAAAAAAAAAAAAAAAAAAAAAAAAAAAAAAAAAAAAAAAAAAAAAAAAAAAAAAAAAAAAAAAAAAAAAAAAAAAAAAAAAAAAAAAAAAAAAAAAAAAAAAAAAAAAAAAAAAAAAAAAAAAAAAAAAAAAAAAAAAAAAAAAAAAAAAAAAAAAAAAAAAAAAAAAAAAAAAAAAAAAAAAAAAAAAAAAAAAAAAAAAAAAAAAAAAAAAAAAAAAAAAAAAAAAAAAAAAAAAAAAAAAAAAAAAAAAAAAAAAAAAAAAAAAAAAAAAAAAAAAAAAAAAAAAAAAAAAAAAAAAAAAAAAAAAAAAAAAAAAAAAAAAAAAAAAAAAAAAAAAAAAAAAAAAAAAAAAAAAAAAAAAAAAAAAAAAAAAAAAAAAAAAAAAAAAAAAAAAAAAAAAAAAAAAAAAAAAAAAAAAAAAAAAAAAAAAAAAAAAAAAAAAAAAAAAAAAAAAAAAAAAAAAAAAAAAAAAAAAAAAAAAAAAAAAAAAAAAAAAAAAAAAAAAAAAAAAAAAAAAAAAAAAAAAAAAAAAAAAAAAAAAAAAAAAAAAAAAAAAAAAAAAAAAAAAAAAAAAAAAAAAAAAAAAAAAAAAAAAAAAAAAAAAAAAAAAAAAAAAAAAAAAAAAAAAAAAAAAAAAAAAAAAAAAAAAAAAAAAAAAAAAAAAAAAAAAAAAAAAAAAAAAAAAAAAAAAAAAAAAAAAAAAAAAAAAAAAAAAAAAAAAAAAAAAAAAAAAAAAAAAAAAAAAAAAAAAAAAAAAAAAAAAAAAAAAAAAAAAAAAAAAAAAAAAAAAAAAAAAAAAAAAAAAAAAAAAAAAAAAAAAAAAAAAAAAAAAAAAAAAAAAAAAAAAAAAAAAAAAAAAAAAAAAAAAAAAAAAAAAAAAAAAAAAAAAAAAAAAAAAAAAAAAAAAAAAAAAAAAAAAAAAAAAAAAAAAAAAAAAAAAAAAAAAAAAAAAAAAAAAAAAAAAAAAAAAAAAAAAAAAAAAAAAAAAAAAAAAAAAAAAAAAAAAAAAAAAAAAAAAAAAAAAAAAAAAAAAAAAAAAAAAAAAAAAAAAAAAAAAAAAAAAAAAAAAAAAAAAAAAAAAAAAAAAAAAAAAAAAAAAAAAAAAAAAAAAAAAAAAAAAAAAAAAAAAAAAAAAAAAAAAAAAAAAAAAAAAAAAAAAAAAAAAAAAAAAAAAAAAAAAAAAAAAAAAAAAAAAAAAAAAAAAAAAAAAAAAAAAAAAAAAAAAAAAAAAAAAAAAAAAAAAAAAAAAAAAAAAAAAAAAAAAAAAAAAAAAAAAAAAAAAAAAAAAAAAAAAAAAAAAAAAAAAAAAAAAAAAAAAAAAAAAAAAAAAAAAAAAAAAAAAAAAAAAAAAAAAAAAAAAAAAAAAAAAAAAAAAAAAAAAAAAAAAAAAAAAAAAAAAAAAAAAAAAAAAAAAAAAAAAAAAAAAAAAAAAAAAAAAAAAAAAAAAAAAAAAAAAAAAAAAAAAAAAAAAAAAAAAAAAAAAAAAAAAAAAAAAAAAAAAAAAAAAAAAAAAAAAAAAAAAAAAAAAAAAAAAAAAAAAAAAAAAAAAAAAAAAAAAAAAAAAAAAAAAAAAAAAAAAAAAAAAAAAAAAAAAAAAAAAAAAAAAAAAAAAAAAAAAAAAAAAAAAAAAAAAAAAAAAAAAAAAAAAAAAAAAAAAAAAAAAAAAAAAAAAAAAAAAAAAAAAAAAAAAAAAAAAAAAAAAAAAAAAAAAAAAAAAAAAAAAAAAAAAAAAAAAAAAAAAAAAAAAAAAAAAAAAAAAAAAAAAAAAAAAAAAAAAAAAAAAAAAAAAAAAAAAAAAAAAAAAAAAAAAAAAAAAAAAAAAAAAAAAAAAAAAAAAAAAAAAAAAAAAAAAAAAAAAAAAAAAAAAAAAAAAAAAAAAAAAAAAAAAAAAAAAAAAAAAAAAAAAAAAAAAAAAAAAAAAAAAAAAAAAAAAAAAAAAAAAAAAAAAAAAAAAAAAAAAAAAAAAAAAAAAAAAAAAAAAAAAAAAAAAAAAAAAAAAAAAAAAAAAAAAAAAAAAAAAAAAAAAAAAAAAAAAAAAAAAAAAAAAAAAAAAAAAAAAAAAAAAAAAAAAAAAAAAAAAAAAAAAAAAAAAAAAAAAAAAAAAAAAAAAAAAAAAAAAAAAAAAAAAAAAAAAAAAAAAAAAAAAAAAAAAAAAAAAAAAAAAAAAAAAAAAAAAAAAAAAAAAAAAAAAAAAAAAAAAAAAAAAAAAAAAAAAAAAAAAAAAAAAAAAAAAAAAAAAAAAAAAAAAAAAAAAAAAAAAAAAAAAAAAAAAAAAAAAAAAAAAAAAAAAAAAAAAAAAAAAAAAAAAAAAAAAAAAAAAAAAAAAAAAAAAAAAAAAAAAAAAAAAAAAAAAAAAAAAAAAAAAAAAAAAAAAAAAAAAAAAAAAAAAAAAAAAAAAAAAAAAAAAAAAAAAAAAAAAAAAAAAAAAAAAAAAAAAAAAAAAAAAAAAAAAAAAAAAAAAAAAAAAAAAAAAAAAAAAAAAAAAAAAAAAAAAAAAAAAAAAAAAAAAAAAAAAAAAAAAAAAAAAAAAAAAAAAAAAAAAAAAAAAAAAAAAAAAAAAAAAAAAAAAAAAAAAAAAAAAAAAAAAAAAAAAAAAAAAAAAAAAAAAAAAAAAAAAAAAAAAAAAAAAAAAAAAAAAAAAAAAAAAAAAAAAAAAAAAAAAAAAAAAAAAAAAAAAAAAAAAAAAAAAAAAAAAAAAAAAAAAAAAAAAAAAAAAAAAAAAAAAAAAAAAAAAAAAAAAAAAAAAAAAAAAAAAAAAAAAAAAAAAAAAAAAAAAAAAAAAAAAAAAAAAAAAAAAAAAAAAAAAAAAAAAAAAAAAAAAAAAAAAAAAAAAAAAAAAAAAAAAAAAAAAAAAAAAAAAAAAAAAAAAAAAAAAAAAAAAAAAAAAAAAAAAAAAAAAAAAAAAAAAAAAAAAAAAAAAAAAAAAAAAAAAAAAAAAAAAAAAAAAAAAAAAAAAAAAAAAAAAAAAAAAAAAAAAAAAAAAAAAAAAAAAAAAAAAAAAAAAAAAAAAAAAAAAAAAAAAAAAAAAAAAAAAAAAAAAAAAAAAAAAAAAAAAAAAAAAAAAAAAAAAAAAAAAAAAAAAAAAAAAAAAAAAAAAAAAAAAAAAAAAAAAAAAAAAAAAAAAAAAAAAAAAAAAAAAAAAAAAAAAAAAAAAAAAAAAAAAAAAAAAAAAAAAAAAAAAAAAAAAAAAAAAAAAAAAAAAAAAAAAAAAAAAAAAAAAAAAAAAAAAAAAAAAAAAAAAAAAAAAAAAAAAAAAAAAAAAAAAAAAAAAAAAAAAAAAAAAAAAAAAAAAAAAAAAAAAAAAAAAAAAAAAAAAAAAAAAAAAAAAAAAAAAAAAAAAAAAAAAAAAAAAAAAAAAAAAAAAAAAAAAAAAAAAAAAAAAAAAAAAAAAAAAAAAAAAAAAAAAAAAAAAAAAAAAAAAAAAAAAAAAAAAAAAAAAAAAAAAAAAAAAAAAAAAAAAAAAAAAAAAAAAAAAAAAAAAAAAAAAAAAAAAAAAAAAAAAAAAAAAAAAAAAAAAAAAAAAAAAAAAAAAAAAAAAAAAAAAAAAAAAAAAAAAAAAAAAAAAAAAAAAAAAAAAAAAAAAAAAAAAAAAAAAAAAAAAAAAAAAAAAAAAAAAAAAAPZYQI7Tky0a6MY3KpFZkt3vAWoJYXptP9+o1x58c6rqJNUiAMATmD6MhjYIQb9w5dP/g7fHFx/zyyAjF2wkt0dRJmU=</c2pa:manifest></metadata><defs><clipPath id="presidentb"><path d="M94.8,165.4 C74.8,168.4 36,173.4 24,191.4 C20,215.4 2,236 2,262 C2,284 14,294 14,306 L35.2,306 L56.4,308.6 L77.6,304.7 L98.8,307.3 L120,303.4 L141.2,306 L162.4,308.6 L183.6,304.7 L204.8,307.3 L226,303.4 C226,294 238,284 238,262 C238,236 220,215.4 216,191.4 C204,173.4 165.2,168.4 145.2,165.4Z"></path></clipPath><clipPath id="presidenth"><path d="M120,34 C158.4,34 180,63.699999999999996 180,116.5 C180,148.18 160.32,166 120,166 C79.68,166 60,148.18 60,116.5 C60,63.699999999999996 81.6,34 120,34Z"></path></clipPath><filter id="presidentc" x="-12%" y="-10%" width="124%" height="120%" color-interpolation-filters="sRGB"><feMorphology in="SourceAlpha" operator="dilate" radius="5" result="d"></feMorphology><feTurbulence type="fractalNoise" baseFrequency="0.045" numOctaves="2" seed="20" result="n"></feTurbulence><feDisplacementMap in="d" in2="n" scale="9" xChannelSelector="R" yChannelSelector="G" result="dd"></feDisplacementMap><feFlood flood-color="#FFFFFF" result="w"></feFlood><feComposite in="w" in2="dd" operator="in" result="wb"></feComposite><feOffset in="dd" dx="4" dy="5" result="so"></feOffset><feFlood flood-color="#151515" flood-opacity=".3"></feFlood><feComposite in2="so" operator="in" result="shd"></feComposite><feTurbulence type="fractalNoise" baseFrequency=".85" numOctaves="2" seed="27" result="g"></feTurbulence><feColorMatrix in="g" type="matrix" values="0 0 0 0 0.08  0 0 0 0 0.08  0 0 0 0 0.08  0.55 0 0 0 -0.24" result="ga"></feColorMatrix><feComposite in="ga" in2="SourceAlpha" operator="in" result="gr"></feComposite><feMerge><feMergeNode in="shd"></feMergeNode><feMergeNode in="wb"></feMergeNode><feMergeNode in="SourceGraphic"></feMergeNode><feMergeNode in="gr"></feMergeNode></feMerge></filter></defs><g filter="url(#presidentc)"><g id="cheveux_arriere" data-calque="cheveux_arriere"></g><g id="corps" data-calque="corps"><rect x="94.8" y="126.4" width="50.4" height="55" fill="#F0BE9A"></rect><path d="M94.8,165.4 C74.8,168.4 36,173.4 24,191.4 C20,215.4 2,236 2,262 C2,284 14,294 14,306 L35.2,306 L56.4,308.6 L77.6,304.7 L98.8,307.3 L120,303.4 L141.2,306 L162.4,308.6 L183.6,304.7 L204.8,307.3 L226,303.4 C226,294 238,284 238,262 C238,236 220,215.4 216,191.4 C204,173.4 165.2,168.4 145.2,165.4Z" fill="#F0BE9A"></path></g><g id="maillot" data-calque="maillot"><g clip-path="url(#presidentb)"><path d="M94.8,165.4 C74.8,168.4 36,173.4 24,191.4 C21,199.4 20,209.4 20,219.4 L38,223.4 C38,245.4 18,238 18,262 C18,284 30,294 30,306 L48,306 L66,308.6 L84,304.7 L102,307.3 L120,303.4 L138,306 L156,308.6 L174,304.7 L192,307.3 L210,303.4 C210,294 222,284 222,262 C222,238 202,245.4 202,223.4 L220,219.4 C220,209.4 219,199.4 216,191.4 C204,173.4 165.2,168.4 145.2,165.4Z" fill="#E1341E"></path><path d="M20,219.4 L38,223.4 M220,219.4 L202,223.4" stroke="#FFFFFF" stroke-width="4"></path><rect x="115" y="171.4" width="10" height="38" fill="#c9301d"></rect><circle cx="120" cy="185.4" r="2.4" fill="#FFFFFF"></circle><circle cx="120" cy="198.4" r="2.4" fill="#FFFFFF"></circle><path d="M109,161.4 L120,177.4 L131,161.4Z" fill="#F0BE9A"></path><path d="M90,159.4 L117,179.4 L104,189.4 L84,169.4Z M150,159.4 L123,179.4 L136,189.4 L156,169.4Z" fill="#FFFFFF"></path></g></g><g id="ombres" data-calque="ombres"><g transform="translate(1.5 1)"><g clip-path="url(#presidentb)" fill="#151515" opacity=".2"><ellipse cx="120" cy="167.4" rx="37.2" ry="14"></ellipse><path d="M169,165.4 C218,175.4 248,250 226,316 L178.3,316 C202.6,250 178.8,195.4 169,165.4Z"></path><path d="M37.400000000000006,282 Q120,300 202.6,282 L202.6,292 Q120,312 37.400000000000006,292Z"></path></g></g></g><g id="tete" data-calque="tete"><ellipse cx="61.800000000000004" cy="103.96" rx="8.58" ry="11.22" fill="#F0BE9A"></ellipse><ellipse cx="178.2" cy="103.96" rx="8.58" ry="11.22" fill="#F0BE9A"></ellipse><ellipse cx="61.800000000000004" cy="103.96" rx="4.29" ry="5.9399999999999995" fill="#c9a082"></ellipse><ellipse cx="178.2" cy="103.96" rx="4.29" ry="5.9399999999999995" fill="#c9a082"></ellipse><path d="M120,34 C158.4,34 180,63.699999999999996 180,116.5 C180,148.18 160.32,166 120,166 C79.68,166 60,148.18 60,116.5 C60,63.699999999999996 81.6,34 120,34Z" fill="#F0BE9A"></path><g clip-path="url(#presidenth)"><ellipse cx="183" cy="106.6" rx="27" ry="79.2" fill="#151515" opacity=".13"></ellipse></g><ellipse cx="87" cy="121.12" rx="10" ry="6" fill="#E1341E" opacity=".3"></ellipse><ellipse cx="153" cy="121.12" rx="10" ry="6" fill="#E1341E" opacity=".3"></ellipse></g><g id="cheveux" data-calque="cheveux"><ellipse cx="63" cy="92.08" rx="9" ry="13.200000000000001" fill="#9A8B78"></ellipse><ellipse cx="177" cy="92.08" rx="9" ry="13.200000000000001" fill="#9A8B78"></ellipse><ellipse cx="100.8" cy="52.480000000000004" rx="13.2" ry="5.28" fill="#FFFFFF" opacity=".45" transform="rotate(-18 100.8 52.480000000000004)"></ellipse></g><g id="yeux" data-calque="yeux"><ellipse cx="97.2" cy="100" rx="4.6" ry="6.2" fill="#151515"></ellipse><circle cx="95.7" cy="97.8" r="1.4" fill="#FFFFFF"></circle><ellipse cx="142.8" cy="100" rx="4.6" ry="6.2" fill="#151515"></ellipse><circle cx="141.3" cy="97.8" r="1.4" fill="#FFFFFF"></circle></g><g id="sourcils" data-calque="sourcils"><rect x="88.2" y="79.75" width="18" height="6.5" rx="3.25" fill="#8A7A68" transform="rotate(0 97.2 83)"></rect><rect x="133.8" y="79.75" width="18" height="6.5" rx="3.25" fill="#8A7A68" transform="rotate(0 142.8 83)"></rect></g><g id="nez" data-calque="nez"><ellipse cx="123" cy="119.8" rx="13.2" ry="9.9" fill="#D9826A"></ellipse><ellipse cx="128.4" cy="121.8" rx="6" ry="5.9399999999999995" fill="#151515" opacity=".1"></ellipse></g><g id="bouche" data-calque="bouche"><path d="M106.14,138.28 Q120,141.28 133.86,137.28" fill="none" stroke="#151515" stroke-width="3.6" stroke-linecap="round"></path></g><g id="moustache" data-calque="moustache"></g><g id="accessoires" data-calque="accessoires"><path d="M192,177.4 L46,280" stroke="#151515" stroke-width="9" stroke-linecap="round"></path><rect x="14" y="266" width="70" height="32" rx="12" fill="#151515"></rect><path d="M24,276 H74" stroke="#8A8A8A" stroke-width="2"></path><circle cx="86" cy="292" r="5" fill="none" stroke="#F2C94C" stroke-width="2.5"></circle><rect x="84" y="296" width="4" height="12" fill="#F2C94C" transform="rotate(-15 86 296)"></rect><rect x="88" y="295" width="4" height="10" fill="#C9C2B2" transform="rotate(20 90 295)"></rect><g transform="translate(204,250)"><path d="M-13,-32 L13,-32 L11,20 L-11,20Z" fill="#F4E7A8"></path><rect x="-13" y="-32" width="26" height="5" fill="#FFFFFF" opacity=".6"></rect><rect x="-8" y="-20" width="8" height="8" fill="#FFFFFF" opacity=".75" transform="rotate(15 -4 -16)"></rect></g><g transform="translate(204,270) rotate(10)"><ellipse cx="0" cy="0" rx="16" ry="13" fill="#F0BE9A"></ellipse><ellipse cx="-13" cy="-7" rx="6" ry="8.5" fill="#F0BE9A"></ellipse><path d="M-4,-6 h14 M-2,1 h13" stroke="#c9a082" stroke-width="2" stroke-linecap="round"></path></g></g></g></svg>